<svg xmlns="http://www.w3.org/2000/svg" xmlns:xlink="http://www.w3.org/1999/xlink" xmlns:lucid="lucid" width="2012.86" height="680"><g transform="translate(-14.939737434508089 -20)" lucid:page-tab-id="rtC-tGhsE05x"><path d="M347.8 58a18 18 0 0 1 18-18h1264a18 18 0 0 1 18 18v604a18 18 0 0 1-18 18h-1264a18 18 0 0 1-18-18z" fill="#e5e5e5"/><path d="M355.94 43l1.7-1.04 2.6-1.08 2.74-.66h9.05m12.06 0h18.1m12.06 0h18.1m12.06 0l18.1-.02m12.06 0h18.1m12.06 0h18.1m12.07 0H553m12.07 0l18.1-.02m12.06 0h18.1m12.06 0h18.1m12.06 0h18.1m12.06 0l18.1-.02m12.06 0h18.1m12.06 0h18.1m12.06 0h18.1m12.07-.02h18.1m12.06 0h18.1m12.06 0h18.1m12.05 0h18.1m12.07-.02h18.1m12.06 0h18.1m12.06 0h18.1m12.06 0l18.1-.02m12.06 0h18.1m12.07 0h18.1m12.06 0h18.1m12.05 0l18.1-.02m12.06 0h18.1m12.08 0h18.1m12.06 0h18.1m12.06-.02h18.1m12.06 0h18.1m12.07 0h18.1m12.06 0h18.1m12.05-.02h18.1m12.06 0h18.1m12.07 0h18.1m12.07 0l18.1-.02m12.06 0h18.1m12.06 0h18.1m12.06 0h18.1m12.07 0l18.08-.02m12.07 0h9.05l2.8.22 2.76.66 1.83.76m7.6 6.5l1.03 1.7 1.1 2.6.65 2.74v9.1m0 12.14v18.2m0 12.14l.02 18.2m0 12.14v18.2m.02 12.15v18.2m0 12.14V216m.02 12.13v18.2m0 12.14l.02 18.2m0 12.14V307m0 12.15l.02 18.2m0 12.14v18.2m0 12.13l.02 18.2m0 12.14v18.2m.02 12.14v18.22m0 12.13v18.2m.02 12.14v18.2m0 12.13l.02 18.2m0 12.15v18.2m0 12.14l.02 18.2m0 12.14v18.2m0 12.14l.02 9.1-.22 2.82-.66 2.74-.76 1.83m-6.5 7.6l-1.7 1.04-2.6 1.08-2.75.66h-9.04m-12.06 0h-18.1m-12.06 0h-18.1m-12.07 0l-18.1.02m-12.06 0h-18.1m-12.05 0h-18.1m-12.06 0h-18.1m-12.07 0l-18.1.02m-12.07 0h-18.1m-12.06 0h-18.1m-12.06 0h-18.1m-12.06 0l-18.1.02m-12.07 0h-18.08m-12.07 0h-18.1m-12.06 0h-18.1m-12.07.02h-18.1m-12.07 0h-18.1m-12.06 0h-18.1m-12.06 0h-18.1m-12.06.02h-18.1m-12.06 0h-18.1m-12.07 0h-18.1m-12.06 0l-18.1.02m-12.07 0h-18.1m-12.06 0h-18.1m-12.07 0h-18.1m-12.06 0l-18.1.02m-12.06 0h-18.1m-12.06 0h-18.1m-12.06 0h-18.1m-12.07.02h-18.1m-12.07 0h-18.1m-12.06 0h-18.1m-12.06 0h-18.1m-12.06.02h-18.1m-12.06 0h-18.1m-12.06 0h-18.1m-12.06 0l-18.1.02m-12.07 0h-18.1m-12.07 0h-18.1m-12.06 0h-18.1M405 680l-18.1.02m-12.05 0h-9.05l-2.82-.22-2.75-.66-1.82-.76m-7.6-6.5l-1.04-1.7-1.08-2.6-.66-2.74v-9.1m0-12.14l-.02-18.2m0-12.14v-18.2m0-12.14l-.02-18.2m0-12.15v-18.2m0-12.14l-.02-18.2m0-12.13v-18.2m-.02-12.14v-18.2m0-12.14V413m-.02-12.15v-18.2m0-12.14l-.02-18.2m0-12.13v-18.2m0-12.14l-.02-18.2m0-12.14v-18.22m0-12.13l-.02-18.2m0-12.14v-18.2m-.02-12.13v-18.2m0-12.15v-18.2m-.02-12.14v-18.2m0-12.14l-.02-18.2m0-12.14V58l.22-2.82.66-2.74.75-1.83" stroke="#ccc" stroke-width="6" fill="none"/><use xlink:href="#a" transform="matrix(1,0,0,1,362.7968802916512,55) translate(531.3827160493829 49.777777777777715)"/><path d="M1461.5 300c11.05 0 20 21.27 20 47.5s-8.95 47.5-20 47.5h-160c-11.04 0-20-21.27-20-47.5s8.96-47.5 20-47.5z" stroke="#19967d" stroke-width="5" fill="#c7e8ac"/><path d="M1461.5 395c-11.04 0-20-21.27-20-47.5s8.96-47.5 20-47.5" stroke="#19967d" stroke-width="5" fill="none"/><use xlink:href="#b" transform="matrix(1,0,0,1,1286.50474546019,305) translate(22.103765432098783 30.20138888888888)"/><use xlink:href="#c" transform="matrix(1,0,0,1,1286.50474546019,305) translate(21.603765432098783 67.5347222222222)"/><path d="M34.94 189.25a6 6 0 0 1 6-6H211.8a6 6 0 0 1 6 6v108a6 6 0 0 1-6 6H40.94a6 6 0 0 1-6-6z" stroke="#0c7cba" stroke-width="5" fill="#c1e4f7"/><path d="M53.23 183.25v120m146.28-120v120" stroke="#0c7cba" stroke-width="5" fill="none"/><use xlink:href="#d" transform="matrix(1,0,0,1,62.79688029165094,188.25) translate(4.456790123456798 30.555555555555564)"/><use xlink:href="#e" transform="matrix(1,0,0,1,62.79688029165094,188.25) translate(26.882716049382722 67.88888888888889)"/><use xlink:href="#f" transform="matrix(1,0,0,1,62.79688029165094,188.25) translate(17.4166666666667 96.33333333333333)"/><use xlink:href="#g" transform="matrix(1,0,0,1,62.79688029165094,188.25) translate(56.25000000000001 96.33333333333333)"/><use xlink:href="#h" transform="matrix(1,0,0,1,62.79688029165094,188.25) translate(67.36111111111111 96.33333333333333)"/><path d="M221.68 244.66l4.37 4.34m5.84 5.8l8.73 8.67m5.83 5.8l8.75 8.67m5.84 5.8l8.75 8.67m5.82 5.8l8.75 8.68m5.83 5.8l8.75 8.67m5.83 5.8l4.38 4.33" stroke="#0c7cba" stroke-width="4" fill="none"/><path d="M223.13 243.28l-2.82 2.83-.04-.03v-5.64z" stroke="#0c7cba" stroke-width=".05" fill="#0c7cba"/><path d="M320.7 342.94l-13.4-6.76 6.54-6.58z" stroke="#0c7cba" stroke-width="4" fill="#0c7cba"/><path d="M1111.8 347.5h4.4m5.86 0h8.8m5.86 0h8.8m5.86 0h8.8m5.86 0h8.8m5.85 0h8.8m5.85 0h8.8m5.86 0h8.8m5.87 0h8.8m5.86 0h8.8m5.85 0h4.4" stroke="#19967d" stroke-width="3" fill="none"/><path d="M1111.84 349h-1.62l.08-1.5-.07-1.5h1.6z" stroke="#19967d" stroke-width=".05" fill="#19967d"/><path d="M1274.15 347.5l-14.27 4.64v-9.28z" stroke="#19967d" stroke-width="3" fill="#19967d"/><path d="M751.8 347.5h4.43m5.9 0H771m5.9 0h8.86m5.9 0h8.86m5.9 0h8.86m5.9 0h8.87m5.9 0h8.86m5.92 0h8.86m5.9 0h8.86m5.9 0h4.43" stroke="#19967d" stroke-width="3" fill="none"/><path d="M751.84 349h-1.62l.08-1.5-.07-1.5h1.6z" stroke="#19967d" stroke-width=".05" fill="#19967d"/><path d="M900.44 347.5l-14.27 4.64v-9.28z" stroke="#19967d" stroke-width="3" fill="#19967d"/><path d="M2007.8 188c0 6.63-40.3 12-90 12s-90-5.37-90-12V92c0-6.63 40.3-12 90-12s90 5.37 90 12z" stroke="#ef8d22" stroke-width="6" fill="#ffeca9"/><path d="M2007.8 92c0 6.63-40.3 12-90 12s-90-5.37-90-12" stroke="#ef8d22" stroke-width="6" fill="none"/><use xlink:href="#i" transform="matrix(1,0,0,1,1832.7968802916512,109) translate(45.33333333333334 49.076388888888886)"/><path d="M1668.86 345.9l3.56-4.7m4.74-6.25l7.1-9.4m4.75-6.25l7.12-9.4m4.74-6.24l7.1-9.4m4.75-6.25l7.12-9.38m4.74-6.26l7.1-9.4m4.75-6.25l7.12-9.38m4.74-6.26l7.1-9.4m4.75-6.25l7.12-9.37m4.74-6.26l7.1-9.4m4.75-6.25l7.12-9.4m4.74-6.25l7.1-9.4m4.75-6.25l3.57-4.7" stroke="#fc9432" stroke-width="4" fill="none"/><path d="M1670.5 347.07l-3.06 4.03-.2-.15.42-3.32-.07-1.9-.2-1z" stroke="#fc9432" stroke-width=".05" fill="#fc9432"/><path d="M1820.9 145.16l-4.93 14.17-7.4-5.6z" stroke="#fc9432" stroke-width="4" fill="#fc9432"/><path d="M1087.8 300c11.04 0 20 21.27 20 47.5s-8.96 47.5-20 47.5h-160c-11.05 0-20-21.27-20-47.5s8.95-47.5 20-47.5z" stroke="#19967d" stroke-width="5" fill="#c7e8ac"/><path d="M1087.8 395c-11.05 0-20-21.27-20-47.5s8.95-47.5 20-47.5" stroke="#19967d" stroke-width="5" fill="none"/><use xlink:href="#j" transform="matrix(1,0,0,1,912.7968802916512,305) translate(8.543209876543244 48.79513888888888)"/><path d="M727.8 300c11.04 0 20 21.27 20 47.5s-8.96 47.5-20 47.5h-160c-11.05 0-20-21.27-20-47.5s8.95-47.5 20-47.5z" stroke="#19967d" stroke-width="5" fill="#c7e8ac"/><path d="M727.8 395c-11.05 0-20-21.27-20-47.5s8.95-47.5 20-47.5" stroke="#19967d" stroke-width="5" fill="none"/><use xlink:href="#k" transform="matrix(1,0,0,1,552.7968802916512,305) translate(27.288950617283973 30.20138888888888)"/><use xlink:href="#c" transform="matrix(1,0,0,1,552.7968802916512,305) translate(21.603765432098783 67.5347222222222)"/><path d="M1486 347.5h5.65m7.53 0h11.3m7.52 0h11.3m7.5 0h11.3m7.53 0h11.3m7.52 0h11.3m7.52 0h5.64" stroke="#fc9432" stroke-width="4" fill="none"/><path d="M1486.06 349.5h-2.16l.1-2-.1-2h2.16z" stroke="#fc9432" stroke-width=".05" fill="#fc9432"/><path d="M1615.18 347.5l-14.27 4.64v-9.28z" stroke="#fc9432" stroke-width="4" fill="#fc9432"/><path d="M1664.65 347.5c0 11.05-8.95 20-20 20-11.04 0-20-8.95-20-20s8.96-20 20-20c11.05 0 20 8.95 20 20zm-34.14-14.14l28.3 28.28m-28.3 0l28.3-28.28" stroke="#ef8d22" stroke-width="6" fill="#ffeca9"/><path d="M367.8 347.5c0 11.05-8.96 20-20 20-11.05 0-20-8.95-20-20s8.95-20 20-20c11.04 0 20 8.95 20 20zm-34.15-14.14l28.3 28.28m-28.3 0l28.3-28.28" stroke="#0c7cba" stroke-width="5" fill="#c1e4f7"/><path d="M372.3 347.5h5.63m7.52 0h11.27m7.5 0h11.28m7.5 0h11.28m7.5 0h11.28m7.5 0h11.28m7.52 0h11.27m7.5 0h11.28m7.52 0h5.64" stroke="#0c7cba" stroke-width="4" fill="none"/><path d="M372.35 349.5h-2.28l.23-1.9-.06-1.82-.06-.28h2.17z" stroke="#0c7cba" stroke-width=".05" fill="#0c7cba"/><path d="M538.82 347.5l-14.26 4.64v-9.28z" stroke="#0c7cba" stroke-width="4" fill="#0c7cba"/><path d="M907.8 407.07a6 6 0 0 1 6-6h228a6 6 0 0 1 6 6v78a6 6 0 0 1-6 6h-228a6 6 0 0 1-6-6z" stroke="#000" stroke-opacity="0" stroke-width="3" fill="#fff" fill-opacity="0"/><path d="M418.72 270.44a7.8 7.8 0 0 1 7.55-5.8h81.82a4.6 4.6 0 0 1 4.44 5.8l-9.38 35.18a7.8 7.8 0 0 1-7.54 5.8H413.8a4.6 4.6 0 0 1-4.46-5.8z" stroke="#0c7cba" stroke-width="5" fill="#c1e4f7"/><use xlink:href="#l" transform="matrix(1,0,0,1,412.7968802916512,269.6403864946151) translate(19.520432098765447 24.180555555555546)"/><path d="M1141.5 259.63c14.33 9.43 23.4 9.43 28.74 9.43 8.63 0 20.1-9.43 28.74-9.43 5.43 0 14.4 0 28.82 9.43v47.37c-14.4-9.5-23.4-9.5-28.82-9.5-8.63 0-20.1 9.5-28.74 9.5-5.35 0-14.4 0-28.74-9.5z" stroke="#19967d" stroke-width="5" fill="#c7e8ac"/><use xlink:href="#m" transform="matrix(1,0,0,1,1146.50474546019,264.6269243297429) translate(4.685185185185219 28.368055555555543)"/><path d="M1515.2 259.63c14.34 9.43 23.4 9.43 28.75 9.43 8.63 0 20.1-9.43 28.73-9.43 5.44 0 14.4 0 28.82 9.43v47.37c-14.4-9.5-23.38-9.5-28.82-9.5-8.63 0-20.1 9.5-28.73 9.5-5.35 0-14.4 0-28.74-9.5z" stroke="#ef8d22" stroke-width="6" fill="#ffeca9"/><use xlink:href="#n" transform="matrix(1,0,0,1,1520.2126106287287,264.6269243297429) translate(4.583333333333357 28.368055555555546)"/><path d="M2007.8 395.5c0 6.63-40.3 12-90 12s-90-5.37-90-12v-96c0-6.63 40.3-12 90-12s90 5.37 90 12z" stroke="#ef8d22" stroke-width="6" fill="#ffeca9"/><path d="M2007.8 299.5c0 6.63-40.3 12-90 12s-90-5.37-90-12" stroke="#ef8d22" stroke-width="6" fill="none"/><use xlink:href="#o" transform="matrix(1,0,0,1,1832.7968802916512,316.5) translate(15.950617283950635 49.076388888888886)"/><path d="M1669.65 347.5h5.68m7.56 0h11.34m7.57 0h11.36m7.56 0h11.35m7.57 0H1751m7.55 0h11.35m7.57 0h11.35m7.56 0h5.68" stroke="#fc9432" stroke-width="4" fill="none"/><path d="M1669.7 349.5h-2.28l.24-1.87-.07-1.9-.05-.23h2.15z" stroke="#fc9432" stroke-width=".05" fill="#fc9432"/><path d="M1818.32 347.5l-14.26 4.64v-9.28z" stroke="#fc9432" stroke-width="4" fill="#fc9432"/><path d="M785.58 265.42a7.8 7.8 0 0 1 7.54-5.8h81.82a4.6 4.6 0 0 1 4.46 5.8l-9.38 35.18a7.8 7.8 0 0 1-7.55 5.8h-81.82a4.6 4.6 0 0 1-4.45-5.8z" stroke="#19967d" stroke-width="5" fill="#c7e8ac"/><use xlink:href="#p" transform="matrix(1,0,0,1,779.6508128759206,264.6269243297429) translate(19.52043209876546 24.180555555555543)"/><path d="M837.8 426a6 6 0 0 1 6-6h308a6 6 0 0 1 6 6v203.33a6 6 0 0 1-6 6h-308a6 6 0 0 1-6-6z" stroke="#000" stroke-opacity="0" stroke-width="3" fill="#fff" fill-opacity="0"/><use xlink:href="#q" transform="matrix(1,0,0,1,842.7968802916512,425) translate(50.56790123456793 19.555555555555554)"/><use xlink:href="#r" transform="matrix(1,0,0,1,842.7968802916512,425) translate(65.4382716049383 19.555555555555554)"/><use xlink:href="#s" transform="matrix(1,0,0,1,842.7968802916512,425) translate(139.99382716049382 19.555555555555554)"/><use xlink:href="#t" transform="matrix(1,0,0,1,842.7968802916512,425) translate(172.58641975308643 19.555555555555554)"/><use xlink:href="#u" transform="matrix(1,0,0,1,842.7968802916512,425) translate(41.06172839506176 48.888888888888886)"/><use xlink:href="#v" transform="matrix(1,0,0,1,842.7968802916512,425) translate(55.93209876543213 48.888888888888886)"/><use xlink:href="#s" transform="matrix(1,0,0,1,842.7968802916512,425) translate(164.50617283950618 48.888888888888886)"/><use xlink:href="#w" transform="matrix(1,0,0,1,842.7968802916512,425) translate(197.0987654320988 48.888888888888886)"/><use xlink:href="#x" transform="matrix(1,0,0,1,842.7968802916512,425) translate(249.99382716049382 48.888888888888886)"/><use xlink:href="#u" transform="matrix(1,0,0,1,842.7968802916512,425) translate(20.691358024691397 78.22222222222221)"/><use xlink:href="#y" transform="matrix(1,0,0,1,842.7968802916512,425) translate(35.56172839506176 78.22222222222221)"/><use xlink:href="#s" transform="matrix(1,0,0,1,842.7968802916512,425) translate(129.19753086419755 78.22222222222221)"/><use xlink:href="#z" transform="matrix(1,0,0,1,842.7968802916512,425) translate(161.79012345679013 78.22222222222221)"/><use xlink:href="#A" transform="matrix(1,0,0,1,842.7968802916512,425) translate(212.037037037037 78.22222222222221)"/><use xlink:href="#u" transform="matrix(1,0,0,1,842.7968802916512,425) translate(58.68209876543213 107.55555555555554)"/><use xlink:href="#B" transform="matrix(1,0,0,1,842.7968802916512,425) translate(73.5524691358025 107.55555555555554)"/><use xlink:href="#s" transform="matrix(1,0,0,1,842.7968802916512,425) translate(160.33024691358025 107.55555555555554)"/><use xlink:href="#C" transform="matrix(1,0,0,1,842.7968802916512,425) translate(192.92283950617283 107.55555555555554)"/><use xlink:href="#u" transform="matrix(1,0,0,1,842.7968802916512,425) translate(21.37037037037038 136.88888888888886)"/><use xlink:href="#D" transform="matrix(1,0,0,1,842.7968802916512,425) translate(36.24074074074075 136.88888888888886)"/><use xlink:href="#E" transform="matrix(1,0,0,1,842.7968802916512,425) translate(101.35802469135803 136.88888888888886)"/><use xlink:href="#s" transform="matrix(1,0,0,1,842.7968802916512,425) translate(189.49382716049382 136.88888888888886)"/><use xlink:href="#F" transform="matrix(1,0,0,1,842.7968802916512,425) translate(222.0864197530864 136.88888888888886)"/><use xlink:href="#u" transform="matrix(1,0,0,1,842.7968802916512,425) translate(34.27160493827162 166.22222222222217)"/><use xlink:href="#G" transform="matrix(1,0,0,1,842.7968802916512,425) translate(49.14197530864199 166.22222222222217)"/><use xlink:href="#H" transform="matrix(1,0,0,1,842.7968802916512,425) translate(112.90123456790124 166.22222222222217)"/><use xlink:href="#s" transform="matrix(1,0,0,1,842.7968802916512,425) translate(190.17283950617283 166.22222222222217)"/><use xlink:href="#I" transform="matrix(1,0,0,1,842.7968802916512,425) translate(222.76543209876542 166.22222222222217)"/><use xlink:href="#J" transform="matrix(1,0,0,1,842.7968802916512,425) translate(89.88271604938274 195.5555555555555)"/><use xlink:href="#K" transform="matrix(1,0,0,1,842.7968802916512,425) translate(117.04320987654322 195.5555555555555)"/><use xlink:href="#L" transform="matrix(1,0,0,1,842.7968802916512,425) translate(164.57407407407408 195.5555555555555)"/><path d="M51.37 401.75a6 6 0 0 1 6-6h132a6 6 0 0 1 6 6V515.6c-24.05-20-39.03-20-48.1-20-14.4 0-33.55 20-47.95 20-8.93 0-24.05 0-47.95-20z" stroke="#0c7cba" stroke-width="5" fill="#c1e4f7"/><path d="M59.37 412.32a6 6 0 0 1 6-6h132a6 6 0 0 1 6 6v113.85c-24.05-20-39.03-20-48.1-20-14.4 0-33.55 20-47.95 20-8.93 0-24.05 0-47.95-20z" stroke="#0c7cba" stroke-width="5" fill="#c1e4f7"/><path d="M67.37 422.9a6 6 0 0 1 6-6h132a6 6 0 0 1 6 6v113.85c-24.05-20-39.03-20-48.1-20-14.4 0-33.55 20-47.95 20-8.93 0-24.05 0-47.95-20z" stroke="#0c7cba" stroke-width="5" fill="#c1e4f7"/><g><use xlink:href="#M" transform="matrix(1,0,0,1,72.36830886307871,421.9) translate(34.44444444444446 21.333333333333325)"/><use xlink:href="#N" transform="matrix(1,0,0,1,72.36830886307871,421.9) translate(28.55555555555557 53.333333333333314)"/><use xlink:href="#O" transform="matrix(1,0,0,1,72.36830886307871,421.9) translate(38.962962962962976 85.3333333333333)"/></g><path d="M215.2 464.8l4.04-4.32m5.4-5.76l8.1-8.63m5.4-5.77l8.12-8.63m5.4-5.75l8.1-8.64m5.4-5.74l8.1-8.64m5.4-5.75l8.1-8.63m5.42-5.76l8.1-8.63m5.4-5.76l4.05-4.32" stroke="#0c7cba" stroke-width="4" fill="none"/><path d="M216.7 466.12l-2.88 3.05v-5.74z" stroke="#0c7cba" stroke-width=".05" fill="#0c7cba"/><path d="M320.87 352.22l-6.4 13.57-6.75-6.35z" stroke="#0c7cba" stroke-width="4" fill="#0c7cba"/><path d="M2007.8 599.07c0 6.63-40.3 12-90 12s-90-5.37-90-12v-96c0-6.63 40.3-12 90-12s90 5.37 90 12z" stroke="#ef8d22" stroke-width="6" fill="#ffeca9"/><path d="M2007.8 503.07c0 6.63-40.3 12-90 12s-90-5.37-90-12" stroke="#ef8d22" stroke-width="6" fill="none"/><g><use xlink:href="#P" transform="matrix(1,0,0,1,1832.7968802916512,520.0714285714275) translate(9.901234567901241 49.076388888888886)"/></g><path d="M1668.87 349.08l3.56 4.6m4.73 6.14l7.1 9.2m4.74 6.13l7.1 9.2m4.73 6.13l7.1 9.2m4.74 6.13l7.1 9.2m4.73 6.15l7.1 9.2m4.74 6.13l7.1 9.2m4.73 6.13l7.1 9.2m4.74 6.14l7.1 9.2m4.75 6.14l7.1 9.2m4.73 6.13l7.1 9.2m4.74 6.14l7.1 9.2m4.73 6.13l3.55 4.6" stroke="#fc9432" stroke-width="4" fill="none"/><path d="M1670.5 347.9l-3.18 2.45.34-2.72-.07-1.9-.35-1.7.15-.13z" stroke="#fc9432" stroke-width=".05" fill="#fc9432"/><path d="M1820.84 545.95l-12.38-8.46 7.33-5.68z" stroke="#fc9432" stroke-width="4" fill="#fc9432"/><defs><path fill="#999" d="M169-182c-1-43-94-46-97-3 18 66 151 10 154 114 3 95-165 93-204 36-6-8-10-19-12-30l50-8c3 46 112 56 116 5-17-69-150-10-154-114-4-87 153-88 188-35 5 8 8 18 10 28" id="Q"/><path fill="#999" d="M190-63c-7 42-38 67-86 67-59 0-84-38-90-98-12-110 154-137 174-36l-49 2c-2-19-15-32-35-32-30 0-35 28-38 64-6 74 65 87 74 30" id="R"/><path fill="#999" d="M135-150c-39-12-60 13-60 57V0H25l-1-190h47c2 13-1 29 3 40 6-28 27-53 61-41v41" id="S"/><path fill="#999" d="M110-194c64 0 96 36 96 99 0 64-35 99-97 99-61 0-95-36-95-99 0-62 34-99 96-99zm-1 164c35 0 45-28 45-65 0-40-10-65-43-65-34 0-45 26-45 65 0 36 10 65 43 65" id="T"/><path fill="#999" d="M25 0v-261h50V0H25" id="U"/><path fill="#999" d="M137-138c1-29-70-34-71-4 15 46 118 7 119 86 1 83-164 76-172 9l43-7c4 19 20 25 44 25 33 8 57-30 24-41C81-84 22-81 20-136c-2-80 154-74 161-7" id="V"/><g id="a"><use transform="matrix(0.17283950617283927,0,0,0.17283950617283927,0,0)" xlink:href="#Q"/><use transform="matrix(0.17283950617283927,0,0,0.17283950617283927,41.481481481481424,0)" xlink:href="#R"/><use transform="matrix(0.17283950617283927,0,0,0.17283950617283927,76.04938271604928,0)" xlink:href="#S"/><use transform="matrix(0.17283950617283927,0,0,0.17283950617283927,100.24691358024678,0)" xlink:href="#T"/><use transform="matrix(0.17283950617283927,0,0,0.17283950617283927,138.0987654320986,0)" xlink:href="#U"/><use transform="matrix(0.17283950617283927,0,0,0.17283950617283927,155.3827160493825,0)" xlink:href="#U"/><use transform="matrix(0.17283950617283927,0,0,0.17283950617283927,172.66666666666643,0)" xlink:href="#V"/></g><path fill="#19967d" d="M185-189c-5-48-123-54-124 2 14 75 158 14 163 119 3 78-121 87-175 55-17-10-28-26-33-46l33-7c5 56 141 63 141-1 0-78-155-14-162-118-5-82 145-84 179-34 5 7 8 16 11 25" id="W"/><path fill="#19967d" d="M59-47c-2 24 18 29 38 22v24C64 9 27 4 27-40v-127H5v-23h24l9-43h21v43h35v23H59v120" id="X"/><path fill="#19967d" d="M100-194c62-1 85 37 85 99 1 63-27 99-86 99S16-35 15-95c0-66 28-99 85-99zM99-20c44 1 53-31 53-75 0-43-8-75-51-75s-53 32-53 75 10 74 51 75" id="Y"/><path fill="#19967d" d="M114-163C36-179 61-72 57 0H25l-1-190h30c1 12-1 29 2 39 6-27 23-49 58-41v29" id="Z"/><path fill="#19967d" d="M141-36C126-15 110 5 73 4 37 3 15-17 15-53c-1-64 63-63 125-63 3-35-9-54-41-54-24 1-41 7-42 31l-33-3c5-37 33-52 76-52 45 0 72 20 72 64v82c-1 20 7 32 28 27v20c-31 9-61-2-59-35zM48-53c0 20 12 33 32 33 41-3 63-29 60-74-43 2-92-5-92 41" id="aa"/><path fill="#19967d" d="M177-190C167-65 218 103 67 71c-23-6-38-20-44-43l32-5c15 47 100 32 89-28v-30C133-14 115 1 83 1 29 1 15-40 15-95c0-56 16-97 71-98 29-1 48 16 59 35 1-10 0-23 2-32h30zM94-22c36 0 50-32 50-73 0-42-14-75-50-75-39 0-46 34-46 75s6 73 46 73" id="ab"/><path fill="#19967d" d="M100-194c63 0 86 42 84 106H49c0 40 14 67 53 68 26 1 43-12 49-29l28 8c-11 28-37 45-77 45C44 4 14-33 15-96c1-61 26-98 85-98zm52 81c6-60-76-77-97-28-3 7-6 17-6 28h103" id="ac"/><g id="b"><use transform="matrix(0.0864197530864197,0,0,0.0864197530864197,0,0)" xlink:href="#W"/><use transform="matrix(0.0864197530864197,0,0,0.0864197530864197,20.74074074074073,0)" xlink:href="#X"/><use transform="matrix(0.0864197530864197,0,0,0.0864197530864197,29.3827160493827,0)" xlink:href="#Y"/><use transform="matrix(0.0864197530864197,0,0,0.0864197530864197,46.66666666666664,0)" xlink:href="#Z"/><use transform="matrix(0.0864197530864197,0,0,0.0864197530864197,56.9506172839506,0)" xlink:href="#aa"/><use transform="matrix(0.0864197530864197,0,0,0.0864197530864197,74.23456790123453,0)" xlink:href="#ab"/><use transform="matrix(0.0864197530864197,0,0,0.0864197530864197,91.51851851851848,0)" xlink:href="#ac"/></g><path fill="#19967d" d="M205 0l-28-72H64L36 0H1l101-248h38L239 0h-34zm-38-99l-47-123c-12 45-31 82-46 123h93" id="ad"/><path fill="#19967d" d="M85-194c31 0 48 13 60 33l-1-100h32l1 261h-30c-2-10 0-23-3-31C134-8 116 4 85 4 32 4 16-35 15-94c0-66 23-100 70-100zm9 24c-40 0-46 34-46 75 0 40 6 74 45 74 42 0 51-32 51-76 0-42-9-74-50-73" id="ae"/><path fill="#19967d" d="M115-194c55 1 70 41 70 98S169 2 115 4C84 4 66-9 55-30l1 105H24l-1-265h31l2 30c10-21 28-34 59-34zm-8 174c40 0 45-34 45-75s-6-73-45-74c-42 0-51 32-51 76 0 43 10 73 51 73" id="af"/><g id="c"><use transform="matrix(0.0864197530864197,0,0,0.0864197530864197,0,0)" xlink:href="#ad"/><use transform="matrix(0.0864197530864197,0,0,0.0864197530864197,20.74074074074073,0)" xlink:href="#ae"/><use transform="matrix(0.0864197530864197,0,0,0.0864197530864197,38.02469135802467,0)" xlink:href="#aa"/><use transform="matrix(0.0864197530864197,0,0,0.0864197530864197,55.30864197530861,0)" xlink:href="#af"/><use transform="matrix(0.0864197530864197,0,0,0.0864197530864197,72.59259259259255,0)" xlink:href="#X"/><use transform="matrix(0.0864197530864197,0,0,0.0864197530864197,81.23456790123453,0)" xlink:href="#ac"/><use transform="matrix(0.0864197530864197,0,0,0.0864197530864197,98.51851851851849,0)" xlink:href="#Z"/></g><path fill="#0c7cba" d="M212-179c-10-28-35-45-73-45-59 0-87 40-87 99 0 60 29 101 89 101 43 0 62-24 78-52l27 14C228-24 195 4 139 4 59 4 22-46 18-125c-6-104 99-153 187-111 19 9 31 26 39 46" id="ag"/><path fill="#0c7cba" d="M141-36C126-15 110 5 73 4 37 3 15-17 15-53c-1-64 63-63 125-63 3-35-9-54-41-54-24 1-41 7-42 31l-33-3c5-37 33-52 76-52 45 0 72 20 72 64v82c-1 20 7 32 28 27v20c-31 9-61-2-59-35zM48-53c0 20 12 33 32 33 41-3 63-29 60-74-43 2-92-5-92 41" id="ah"/><path fill="#0c7cba" d="M114-163C36-179 61-72 57 0H25l-1-190h30c1 12-1 29 2 39 6-27 23-49 58-41v29" id="ai"/><path fill="#0c7cba" d="M85-194c31 0 48 13 60 33l-1-100h32l1 261h-30c-2-10 0-23-3-31C134-8 116 4 85 4 32 4 16-35 15-94c0-66 23-100 70-100zm9 24c-40 0-46 34-46 75 0 40 6 74 45 74 42 0 51-32 51-76 0-42-9-74-50-73" id="aj"/><path fill="#0c7cba" d="M117-194c89-4 53 116 60 194h-32v-121c0-31-8-49-39-48C34-167 62-67 57 0H25l-1-190h30c1 10-1 24 2 32 11-22 29-35 61-36" id="ak"/><path fill="#0c7cba" d="M100-194c62-1 85 37 85 99 1 63-27 99-86 99S16-35 15-95c0-66 28-99 85-99zM99-20c44 1 53-31 53-75 0-43-8-75-51-75s-53 32-53 75 10 74 51 75" id="al"/><g id="d"><use transform="matrix(0.08641975308641973,0,0,0.08641975308641973,0,0)" xlink:href="#ag"/><use transform="matrix(0.08641975308641973,0,0,0.08641975308641973,22.38271604938271,0)" xlink:href="#ah"/><use transform="matrix(0.08641975308641973,0,0,0.08641975308641973,39.66666666666666,0)" xlink:href="#ai"/><use transform="matrix(0.08641975308641973,0,0,0.08641975308641973,49.950617283950606,0)" xlink:href="#aj"/><use transform="matrix(0.08641975308641973,0,0,0.08641975308641973,67.23456790123456,0)" xlink:href="#ah"/><use transform="matrix(0.08641975308641973,0,0,0.08641975308641973,84.5185185185185,0)" xlink:href="#ak"/><use transform="matrix(0.08641975308641973,0,0,0.08641975308641973,101.80246913580245,0)" xlink:href="#al"/></g><path fill="#0c7cba" d="M190 0L58-211 59 0H30v-248h39L202-35l-2-213h31V0h-41" id="am"/><path fill="#0c7cba" d="M100-194c63 0 86 42 84 106H49c0 40 14 67 53 68 26 1 43-12 49-29l28 8c-11 28-37 45-77 45C44 4 14-33 15-96c1-61 26-98 85-98zm52 81c6-60-76-77-97-28-3 7-6 17-6 28h103" id="an"/><g id="e"><use transform="matrix(0.08641975308641973,0,0,0.08641975308641973,0,0)" xlink:href="#am"/><use transform="matrix(0.08641975308641973,0,0,0.08641975308641973,22.38271604938271,0)" xlink:href="#al"/><use transform="matrix(0.08641975308641973,0,0,0.08641975308641973,39.66666666666666,0)" xlink:href="#aj"/><use transform="matrix(0.08641975308641973,0,0,0.08641975308641973,56.950617283950606,0)" xlink:href="#an"/></g><path fill="#0c7cba" d="M87 75C49 33 22-17 22-94c0-76 28-126 65-167h31c-38 41-64 92-64 168S80 34 118 75H87" id="ao"/><path fill="#0c7cba" d="M59-47c-2 24 18 29 38 22v24C64 9 27 4 27-40v-127H5v-23h24l9-43h21v43h35v23H59v120" id="ap"/><path fill="#0c7cba" d="M96-169c-40 0-48 33-48 73s9 75 48 75c24 0 41-14 43-38l32 2c-6 37-31 61-74 61-59 0-76-41-82-99-10-93 101-131 147-64 4 7 5 14 7 22l-32 3c-4-21-16-35-41-35" id="aq"/><path fill="#0c7cba" d="M115-194c55 1 70 41 70 98S169 2 115 4C84 4 66-9 55-30l1 105H24l-1-265h31l2 30c10-21 28-34 59-34zm-8 174c40 0 45-34 45-75s-6-73-45-74c-42 0-51 32-51 76 0 43 10 73 51 73" id="ar"/><g id="f"><use transform="matrix(0.05555555555555552,0,0,0.05555555555555552,0,0)" xlink:href="#ao"/><use transform="matrix(0.05555555555555552,0,0,0.05555555555555552,6.611111111111106,0)" xlink:href="#ap"/><use transform="matrix(0.05555555555555552,0,0,0.05555555555555552,12.166666666666657,0)" xlink:href="#aq"/><use transform="matrix(0.05555555555555552,0,0,0.05555555555555552,22.16666666666665,0)" xlink:href="#ar"/></g><path fill="#0c7cba" d="M0 4l72-265h28L28 4H0" id="as"/><use transform="matrix(0.05555555555555552,0,0,0.05555555555555552,0,0)" xlink:href="#as" id="g"/><path fill="#0c7cba" d="M84 4C-5 8 30-112 23-190h32v120c0 31 7 50 39 49 72-2 45-101 50-169h31l1 190h-30c-1-10 1-25-2-33-11 22-28 36-60 37" id="at"/><path fill="#0c7cba" d="M24-231v-30h32v30H24zM24 0v-190h32V0H24" id="au"/><path fill="#0c7cba" d="M141 0L90-78 38 0H4l68-98-65-92h35l48 74 47-74h35l-64 92 68 98h-35" id="av"/><path fill="#0c7cba" d="M33-261c38 41 65 92 65 168S71 34 33 75H2C39 34 66-17 66-93S39-220 2-261h31" id="aw"/><g id="h"><use transform="matrix(0.05555555555555552,0,0,0.05555555555555552,0,0)" xlink:href="#at"/><use transform="matrix(0.05555555555555552,0,0,0.05555555555555552,11.111111111111104,0)" xlink:href="#ak"/><use transform="matrix(0.05555555555555552,0,0,0.05555555555555552,22.222222222222207,0)" xlink:href="#au"/><use transform="matrix(0.05555555555555552,0,0,0.05555555555555552,26.611111111111093,0)" xlink:href="#av"/><use transform="matrix(0.05555555555555552,0,0,0.05555555555555552,36.611111111111086,0)" xlink:href="#aw"/></g><path fill="#c92d39" d="M233-177c-1 41-23 64-60 70L243 0h-38l-65-103H63V0H30v-248c88 3 205-21 203 71zM63-129c60-2 137 13 137-47 0-61-80-42-137-45v92" id="ax"/><path fill="#c92d39" d="M100-194c63 0 86 42 84 106H49c0 40 14 67 53 68 26 1 43-12 49-29l28 8c-11 28-37 45-77 45C44 4 14-33 15-96c1-61 26-98 85-98zm52 81c6-60-76-77-97-28-3 7-6 17-6 28h103" id="ay"/><path fill="#c92d39" d="M85-194c31 0 48 13 60 33l-1-100h32l1 261h-30c-2-10 0-23-3-31C134-8 116 4 85 4 32 4 16-35 15-94c0-66 23-100 70-100zm9 24c-40 0-46 34-46 75 0 40 6 74 45 74 42 0 51-32 51-76 0-42-9-74-50-73" id="az"/><path fill="#c92d39" d="M24-231v-30h32v30H24zM24 0v-190h32V0H24" id="aA"/><path fill="#c92d39" d="M135-143c-3-34-86-38-87 0 15 53 115 12 119 90S17 21 10-45l28-5c4 36 97 45 98 0-10-56-113-15-118-90-4-57 82-63 122-42 12 7 21 19 24 35" id="aB"/><g id="i"><use transform="matrix(0.08641975308641973,0,0,0.08641975308641973,0,0)" xlink:href="#ax"/><use transform="matrix(0.08641975308641973,0,0,0.08641975308641973,22.38271604938271,0)" xlink:href="#ay"/><use transform="matrix(0.08641975308641973,0,0,0.08641975308641973,39.66666666666666,0)" xlink:href="#az"/><use transform="matrix(0.08641975308641973,0,0,0.08641975308641973,56.950617283950606,0)" xlink:href="#aA"/><use transform="matrix(0.08641975308641973,0,0,0.08641975308641973,63.777777777777764,0)" xlink:href="#aB"/></g><path fill="#19967d" d="M233-177c-1 41-23 64-60 70L243 0h-38l-65-103H63V0H30v-248c88 3 205-21 203 71zM63-129c60-2 137 13 137-47 0-61-80-42-137-45v92" id="aC"/><path fill="#19967d" d="M84 4C-5 8 30-112 23-190h32v120c0 31 7 50 39 49 72-2 45-101 50-169h31l1 190h-30c-1-10 1-25-2-33-11 22-28 36-60 37" id="aD"/><path fill="#19967d" d="M96-169c-40 0-48 33-48 73s9 75 48 75c24 0 41-14 43-38l32 2c-6 37-31 61-74 61-59 0-76-41-82-99-10-93 101-131 147-64 4 7 5 14 7 22l-32 3c-4-21-16-35-41-35" id="aE"/><path fill="#19967d" d="M135-143c-3-34-86-38-87 0 15 53 115 12 119 90S17 21 10-45l28-5c4 36 97 45 98 0-10-56-113-15-118-90-4-57 82-63 122-42 12 7 21 19 24 35" id="aF"/><g id="j"><use transform="matrix(0.0864197530864197,0,0,0.0864197530864197,0,0)" xlink:href="#aC"/><use transform="matrix(0.0864197530864197,0,0,0.0864197530864197,22.382716049382704,0)" xlink:href="#ac"/><use transform="matrix(0.0864197530864197,0,0,0.0864197530864197,39.66666666666664,0)" xlink:href="#ae"/><use transform="matrix(0.0864197530864197,0,0,0.0864197530864197,56.950617283950585,0)" xlink:href="#aD"/><use transform="matrix(0.0864197530864197,0,0,0.0864197530864197,74.23456790123453,0)" xlink:href="#aE"/><use transform="matrix(0.0864197530864197,0,0,0.0864197530864197,89.79012345679007,0)" xlink:href="#ac"/><use transform="matrix(0.0864197530864197,0,0,0.0864197530864197,107.07407407407402,0)" xlink:href="#Z"/><use transform="matrix(0.0864197530864197,0,0,0.0864197530864197,117.35802469135797,0)" xlink:href="#aF"/></g><g id="k"><use transform="matrix(0.0864197530864197,0,0,0.0864197530864197,0,0)" xlink:href="#W"/><use transform="matrix(0.0864197530864197,0,0,0.0864197530864197,20.74074074074073,0)" xlink:href="#Y"/><use transform="matrix(0.0864197530864197,0,0,0.0864197530864197,38.02469135802467,0)" xlink:href="#aD"/><use transform="matrix(0.0864197530864197,0,0,0.0864197530864197,55.30864197530861,0)" xlink:href="#Z"/><use transform="matrix(0.0864197530864197,0,0,0.0864197530864197,65.59259259259255,0)" xlink:href="#aE"/><use transform="matrix(0.0864197530864197,0,0,0.0864197530864197,81.1481481481481,0)" xlink:href="#ac"/></g><path fill="#0c7cba" d="M115-194c53 0 69 39 70 98 0 66-23 100-70 100C84 3 66-7 56-30L54 0H23l1-261h32v101c10-23 28-34 59-34zm-8 174c40 0 45-34 45-75 0-40-5-75-45-74-42 0-51 32-51 76 0 43 10 73 51 73" id="aG"/><path fill="#0c7cba" d="M24 0v-261h32V0H24" id="aH"/><path fill="#0c7cba" d="M143 0L79-87 56-68V0H24v-261h32v163l83-92h37l-77 82L181 0h-38" id="aI"/><g id="l"><use transform="matrix(0.0679012345679012,0,0,0.0679012345679012,0,0)" xlink:href="#aG"/><use transform="matrix(0.0679012345679012,0,0,0.0679012345679012,13.58024691358024,0)" xlink:href="#aH"/><use transform="matrix(0.0679012345679012,0,0,0.0679012345679012,18.944444444444436,0)" xlink:href="#al"/><use transform="matrix(0.0679012345679012,0,0,0.0679012345679012,32.524691358024675,0)" xlink:href="#aq"/><use transform="matrix(0.0679012345679012,0,0,0.0679012345679012,44.74691358024689,0)" xlink:href="#aI"/></g><path fill="#19967d" d="M212-179c-10-28-35-45-73-45-59 0-87 40-87 99 0 60 29 101 89 101 43 0 62-24 78-52l27 14C228-24 195 4 139 4 59 4 22-46 18-125c-6-104 99-153 187-111 19 9 31 26 39 46" id="aJ"/><path fill="#19967d" d="M30-248c118-7 216 8 213 122C240-48 200 0 122 0H30v-248zM63-27c89 8 146-16 146-99s-60-101-146-95v194" id="aK"/><path fill="#19967d" d="M127-220V0H93v-220H8v-28h204v28h-85" id="aL"/><g id="m"><use transform="matrix(0.06790123456790118,0,0,0.06790123456790118,0,0)" xlink:href="#aJ"/><use transform="matrix(0.06790123456790118,0,0,0.06790123456790118,17.586419753086403,0)" xlink:href="#aC"/><use transform="matrix(0.06790123456790118,0,0,0.06790123456790118,35.17283950617281,0)" xlink:href="#aK"/><use transform="matrix(0.06790123456790118,0,0,0.06790123456790118,52.75925925925921,0)" xlink:href="#aL"/></g><path fill="#c92d39" d="M84 4C-5 8 30-112 23-190h32v120c0 31 7 50 39 49 72-2 45-101 50-169h31l1 190h-30c-1-10 1-25-2-33-11 22-28 36-60 37" id="aM"/><path fill="#c92d39" d="M115-194c55 1 70 41 70 98S169 2 115 4C84 4 66-9 55-30l1 105H24l-1-265h31l2 30c10-21 28-34 59-34zm-8 174c40 0 45-34 45-75s-6-73-45-74c-42 0-51 32-51 76 0 43 10 73 51 73" id="aN"/><path fill="#c92d39" d="M114-163C36-179 61-72 57 0H25l-1-190h30c1 12-1 29 2 39 6-27 23-49 58-41v29" id="aO"/><path fill="#c92d39" d="M59-47c-2 24 18 29 38 22v24C64 9 27 4 27-40v-127H5v-23h24l9-43h21v43h35v23H59v120" id="aP"/><g id="n"><use transform="matrix(0.0679012345679012,0,0,0.0679012345679012,0,0)" xlink:href="#aM"/><use transform="matrix(0.0679012345679012,0,0,0.0679012345679012,13.58024691358024,0)" xlink:href="#aN"/><use transform="matrix(0.0679012345679012,0,0,0.0679012345679012,27.16049382716048,0)" xlink:href="#aB"/><use transform="matrix(0.0679012345679012,0,0,0.0679012345679012,39.38271604938269,0)" xlink:href="#ay"/><use transform="matrix(0.0679012345679012,0,0,0.0679012345679012,52.96296296296293,0)" xlink:href="#aO"/><use transform="matrix(0.0679012345679012,0,0,0.0679012345679012,61.04320987654317,0)" xlink:href="#aP"/></g><path fill="#c92d39" d="M240 0l2-218c-23 76-54 145-80 218h-23L58-218 59 0H30v-248h44l77 211c21-75 51-140 76-211h43V0h-30" id="aQ"/><path fill="#c92d39" d="M100-194c62-1 85 37 85 99 1 63-27 99-86 99S16-35 15-95c0-66 28-99 85-99zM99-20c44 1 53-31 53-75 0-43-8-75-51-75s-53 32-53 75 10 74 51 75" id="aR"/><path fill="#c92d39" d="M117-194c89-4 53 116 60 194h-32v-121c0-31-8-49-39-48C34-167 62-67 57 0H25l-1-190h30c1 10-1 24 2 32 11-22 29-35 61-36" id="aS"/><path fill="#c92d39" d="M177-190C167-65 218 103 67 71c-23-6-38-20-44-43l32-5c15 47 100 32 89-28v-30C133-14 115 1 83 1 29 1 15-40 15-95c0-56 16-97 71-98 29-1 48 16 59 35 1-10 0-23 2-32h30zM94-22c36 0 50-32 50-73 0-42-14-75-50-75-39 0-46 34-46 75s6 73 46 73" id="aT"/><path fill="#c92d39" d="M30-248c118-7 216 8 213 122C240-48 200 0 122 0H30v-248zM63-27c89 8 146-16 146-99s-60-101-146-95v194" id="aU"/><path fill="#c92d39" d="M160-131c35 5 61 23 61 61C221 17 115-2 30 0v-248c76 3 177-17 177 60 0 33-19 50-47 57zm-97-11c50-1 110 9 110-42 0-47-63-36-110-37v79zm0 115c55-2 124 14 124-45 0-56-70-42-124-44v89" id="aV"/><g id="o"><use transform="matrix(0.08641975308641973,0,0,0.08641975308641973,0,0)" xlink:href="#aQ"/><use transform="matrix(0.08641975308641973,0,0,0.08641975308641973,25.8395061728395,0)" xlink:href="#aR"/><use transform="matrix(0.08641975308641973,0,0,0.08641975308641973,43.12345679012344,0)" xlink:href="#aS"/><use transform="matrix(0.08641975308641973,0,0,0.08641975308641973,60.4074074074074,0)" xlink:href="#aT"/><use transform="matrix(0.08641975308641973,0,0,0.08641975308641973,77.69135802469134,0)" xlink:href="#aR"/><use transform="matrix(0.08641975308641973,0,0,0.08641975308641973,94.97530864197529,0)" xlink:href="#aU"/><use transform="matrix(0.08641975308641973,0,0,0.08641975308641973,117.358024691358,0)" xlink:href="#aV"/></g><path fill="#19967d" d="M115-194c53 0 69 39 70 98 0 66-23 100-70 100C84 3 66-7 56-30L54 0H23l1-261h32v101c10-23 28-34 59-34zm-8 174c40 0 45-34 45-75 0-40-5-75-45-74-42 0-51 32-51 76 0 43 10 73 51 73" id="aW"/><path fill="#19967d" d="M24 0v-261h32V0H24" id="aX"/><path fill="#19967d" d="M143 0L79-87 56-68V0H24v-261h32v163l83-92h37l-77 82L181 0h-38" id="aY"/><g id="p"><use transform="matrix(0.06790123456790118,0,0,0.06790123456790118,0,0)" xlink:href="#aW"/><use transform="matrix(0.06790123456790118,0,0,0.06790123456790118,13.580246913580234,0)" xlink:href="#aX"/><use transform="matrix(0.06790123456790118,0,0,0.06790123456790118,18.94444444444443,0)" xlink:href="#Y"/><use transform="matrix(0.06790123456790118,0,0,0.06790123456790118,32.52469135802466,0)" xlink:href="#aE"/><use transform="matrix(0.06790123456790118,0,0,0.06790123456790118,44.74691358024687,0)" xlink:href="#aY"/></g><path fill="#333" d="M16-82v-28h88v28H16" id="aZ"/><use transform="matrix(0.06790123456790122,0,0,0.06790123456790122,0,0)" xlink:href="#aZ" id="q"/><path fill="#333" d="M232-93c-1 65-40 97-104 97C67 4 28-28 28-90v-158h33c8 89-33 224 67 224 102 0 64-133 71-224h33v155" id="ba"/><path fill="#333" d="M127-220V0H93v-220H8v-28h204v28h-85" id="bb"/><path fill="#333" d="M195 0l-74-108L45 0H8l94-129-87-119h37l69 98 67-98h37l-84 118L233 0h-38" id="bc"/><path fill="#333" d="M140-251c81 0 123 46 123 126C263-46 219 4 140 4 59 4 17-45 17-125s42-126 123-126zm0 227c63 0 89-41 89-101s-29-99-89-99c-61 0-89 39-89 99S79-25 140-24" id="bd"/><g id="r"><use transform="matrix(0.06790123456790122,0,0,0.06790123456790122,0,0)" xlink:href="#ba"/><use transform="matrix(0.06790123456790122,0,0,0.06790123456790122,17.586419753086414,0)" xlink:href="#bb"/><use transform="matrix(0.06790123456790122,0,0,0.06790123456790122,32.456790123456784,0)" xlink:href="#bc"/><use transform="matrix(0.06790123456790122,0,0,0.06790123456790122,48.753086419753075,0)" xlink:href="#bd"/></g><path fill="#333" d="M115-194c53 0 69 39 70 98 0 66-23 100-70 100C84 3 66-7 56-30L54 0H23l1-261h32v101c10-23 28-34 59-34zm-8 174c40 0 45-34 45-75 0-40-5-75-45-74-42 0-51 32-51 76 0 43 10 73 51 73" id="be"/><path fill="#333" d="M179-190L93 31C79 59 56 82 12 73V49c39 6 53-20 64-50L1-190h34L92-34l54-156h33" id="bf"/><g id="s"><use transform="matrix(0.06790123456790122,0,0,0.06790123456790122,0,0)" xlink:href="#be"/><use transform="matrix(0.06790123456790122,0,0,0.06790123456790122,13.580246913580243,0)" xlink:href="#bf"/></g><path fill="#333" d="M141-36C126-15 110 5 73 4 37 3 15-17 15-53c-1-64 63-63 125-63 3-35-9-54-41-54-24 1-41 7-42 31l-33-3c5-37 33-52 76-52 45 0 72 20 72 64v82c-1 20 7 32 28 27v20c-31 9-61-2-59-35zM48-53c0 20 12 33 32 33 41-3 63-29 60-74-43 2-92-5-92 41" id="bg"/><path fill="#333" d="M85-194c31 0 48 13 60 33l-1-100h32l1 261h-30c-2-10 0-23-3-31C134-8 116 4 85 4 32 4 16-35 15-94c0-66 23-100 70-100zm9 24c-40 0-46 34-46 75 0 40 6 74 45 74 42 0 51-32 51-76 0-42-9-74-50-73" id="bh"/><path fill="#333" d="M114-163C36-179 61-72 57 0H25l-1-190h30c1 12-1 29 2 39 6-27 23-49 58-41v29" id="bi"/><path fill="#333" d="M100-194c63 0 86 42 84 106H49c0 40 14 67 53 68 26 1 43-12 49-29l28 8c-11 28-37 45-77 45C44 4 14-33 15-96c1-61 26-98 85-98zm52 81c6-60-76-77-97-28-3 7-6 17-6 28h103" id="bj"/><path fill="#333" d="M135-143c-3-34-86-38-87 0 15 53 115 12 119 90S17 21 10-45l28-5c4 36 97 45 98 0-10-56-113-15-118-90-4-57 82-63 122-42 12 7 21 19 24 35" id="bk"/><g id="t"><use transform="matrix(0.06790123456790122,0,0,0.06790123456790122,0,0)" xlink:href="#bg"/><use transform="matrix(0.06790123456790122,0,0,0.06790123456790122,13.580246913580243,0)" xlink:href="#bh"/><use transform="matrix(0.06790123456790122,0,0,0.06790123456790122,27.160493827160487,0)" xlink:href="#bh"/><use transform="matrix(0.06790123456790122,0,0,0.06790123456790122,40.74074074074073,0)" xlink:href="#bi"/><use transform="matrix(0.06790123456790122,0,0,0.06790123456790122,48.82098765432098,0)" xlink:href="#bj"/><use transform="matrix(0.06790123456790122,0,0,0.06790123456790122,62.40123456790123,0)" xlink:href="#bk"/><use transform="matrix(0.06790123456790122,0,0,0.06790123456790122,74.62345679012344,0)" xlink:href="#bk"/></g><use transform="matrix(0.06790123456790122,0,0,0.06790123456790122,0,0)" xlink:href="#aZ" id="u"/><path fill="#333" d="M210-169c-67 3-38 105-44 169h-31v-121c0-29-5-50-35-48C34-165 62-65 56 0H25l-1-190h30c1 10-1 24 2 32 10-44 99-50 107 0 11-21 27-35 58-36 85-2 47 119 55 194h-31v-121c0-29-5-49-35-48" id="bl"/><path fill="#333" d="M59-47c-2 24 18 29 38 22v24C64 9 27 4 27-40v-127H5v-23h24l9-43h21v43h35v23H59v120" id="bm"/><g id="v"><use transform="matrix(0.06790123456790122,0,0,0.06790123456790122,0,0)" xlink:href="#bl"/><use transform="matrix(0.06790123456790122,0,0,0.06790123456790122,20.302469135802465,0)" xlink:href="#bj"/><use transform="matrix(0.06790123456790122,0,0,0.06790123456790122,33.88271604938271,0)" xlink:href="#bm"/><use transform="matrix(0.06790123456790122,0,0,0.06790123456790122,40.67283950617283,0)" xlink:href="#bg"/><use transform="matrix(0.06790123456790122,0,0,0.06790123456790122,54.253086419753075,0)" xlink:href="#bh"/><use transform="matrix(0.06790123456790122,0,0,0.06790123456790122,67.83333333333331,0)" xlink:href="#bg"/><use transform="matrix(0.06790123456790122,0,0,0.06790123456790122,81.41358024691355,0)" xlink:href="#bm"/><use transform="matrix(0.06790123456790122,0,0,0.06790123456790122,88.20370370370368,0)" xlink:href="#bg"/></g><path fill="#333" d="M115-194c55 1 70 41 70 98S169 2 115 4C84 4 66-9 55-30l1 105H24l-1-265h31l2 30c10-21 28-34 59-34zm-8 174c40 0 45-34 45-75s-6-73-45-74c-42 0-51 32-51 76 0 43 10 73 51 73" id="bn"/><path fill="#333" d="M100-194c62-1 85 37 85 99 1 63-27 99-86 99S16-35 15-95c0-66 28-99 85-99zM99-20c44 1 53-31 53-75 0-43-8-75-51-75s-53 32-53 75 10 74 51 75" id="bo"/><path fill="#333" d="M24 0v-261h32V0H24" id="bp"/><g id="w"><use transform="matrix(0.06790123456790122,0,0,0.06790123456790122,0,0)" xlink:href="#bn"/><use transform="matrix(0.06790123456790122,0,0,0.06790123456790122,13.580246913580243,0)" xlink:href="#bo"/><use transform="matrix(0.06790123456790122,0,0,0.06790123456790122,27.160493827160487,0)" xlink:href="#bo"/><use transform="matrix(0.06790123456790122,0,0,0.06790123456790122,40.74074074074073,0)" xlink:href="#bp"/></g><path fill="#333" d="M24-231v-30h32v30H24zM24 0v-190h32V0H24" id="bq"/><g id="x"><use transform="matrix(0.06790123456790122,0,0,0.06790123456790122,0,0)" xlink:href="#bq"/><use transform="matrix(0.06790123456790122,0,0,0.06790123456790122,5.364197530864196,0)" xlink:href="#bh"/></g><g id="y"><use transform="matrix(0.06790123456790122,0,0,0.06790123456790122,0,0)" xlink:href="#bg"/><use transform="matrix(0.06790123456790122,0,0,0.06790123456790122,13.580246913580243,0)" xlink:href="#bh"/><use transform="matrix(0.06790123456790122,0,0,0.06790123456790122,27.160493827160487,0)" xlink:href="#bh"/><use transform="matrix(0.06790123456790122,0,0,0.06790123456790122,40.74074074074073,0)" xlink:href="#bi"/><use transform="matrix(0.06790123456790122,0,0,0.06790123456790122,48.82098765432098,0)" xlink:href="#bj"/><use transform="matrix(0.06790123456790122,0,0,0.06790123456790122,62.40123456790123,0)" xlink:href="#bk"/><use transform="matrix(0.06790123456790122,0,0,0.06790123456790122,74.62345679012344,0)" xlink:href="#bk"/></g><path fill="#333" d="M205 0l-28-72H64L36 0H1l101-248h38L239 0h-34zm-38-99l-47-123c-12 45-31 82-46 123h93" id="br"/><g id="z"><use transform="matrix(0.06790123456790122,0,0,0.06790123456790122,0,0)" xlink:href="#br"/><use transform="matrix(0.06790123456790122,0,0,0.06790123456790122,16.29629629629629,0)" xlink:href="#bh"/><use transform="matrix(0.06790123456790122,0,0,0.06790123456790122,29.876543209876534,0)" xlink:href="#bg"/></g><path fill="#333" d="M197 0v-115H63V0H30v-248h33v105h134v-105h34V0h-34" id="bs"/><path fill="#333" d="M117-194c89-4 53 116 60 194h-32v-121c0-31-8-49-39-48C34-167 62-67 57 0H25l-1-190h30c1 10-1 24 2 32 11-22 29-35 61-36" id="bt"/><g id="A"><use transform="matrix(0.06790123456790122,0,0,0.06790123456790122,0,0)" xlink:href="#bs"/><use transform="matrix(0.06790123456790122,0,0,0.06790123456790122,17.586419753086414,0)" xlink:href="#bg"/><use transform="matrix(0.06790123456790122,0,0,0.06790123456790122,31.166666666666657,0)" xlink:href="#bt"/><use transform="matrix(0.06790123456790122,0,0,0.06790123456790122,44.7469135802469,0)" xlink:href="#bh"/><use transform="matrix(0.06790123456790122,0,0,0.06790123456790122,58.32716049382714,0)" xlink:href="#bp"/><use transform="matrix(0.06790123456790122,0,0,0.06790123456790122,63.69135802469133,0)" xlink:href="#bj"/></g><g id="B"><use transform="matrix(0.06790123456790122,0,0,0.06790123456790122,0,0)" xlink:href="#ba"/><use transform="matrix(0.06790123456790122,0,0,0.06790123456790122,17.586419753086414,0)" xlink:href="#bb"/><use transform="matrix(0.06790123456790122,0,0,0.06790123456790122,32.456790123456784,0)" xlink:href="#bc"/><use transform="matrix(0.06790123456790122,0,0,0.06790123456790122,48.753086419753075,0)" xlink:href="#bd"/><use transform="matrix(0.06790123456790122,0,0,0.06790123456790122,67.76543209876542,0)" xlink:href="#bk"/></g><g id="C"><use transform="matrix(0.06790123456790122,0,0,0.06790123456790122,0,0)" xlink:href="#bg"/><use transform="matrix(0.06790123456790122,0,0,0.06790123456790122,13.580246913580243,0)" xlink:href="#bk"/><use transform="matrix(0.06790123456790122,0,0,0.06790123456790122,25.80246913580246,0)" xlink:href="#bk"/><use transform="matrix(0.06790123456790122,0,0,0.06790123456790122,38.02469135802468,0)" xlink:href="#bj"/><use transform="matrix(0.06790123456790122,0,0,0.06790123456790122,51.60493827160492,0)" xlink:href="#bm"/></g><path fill="#333" d="M96-169c-40 0-48 33-48 73s9 75 48 75c24 0 41-14 43-38l32 2c-6 37-31 61-74 61-59 0-76-41-82-99-10-93 101-131 147-64 4 7 5 14 7 22l-32 3c-4-21-16-35-41-35" id="bu"/><path fill="#333" d="M106-169C34-169 62-67 57 0H25v-261h32l-1 103c12-21 28-36 61-36 89 0 53 116 60 194h-32v-121c2-32-8-49-39-48" id="bv"/><g id="D"><use transform="matrix(0.06790123456790122,0,0,0.06790123456790122,0,0)" xlink:href="#bu"/><use transform="matrix(0.06790123456790122,0,0,0.06790123456790122,12.22222222222222,0)" xlink:href="#bv"/><use transform="matrix(0.06790123456790122,0,0,0.06790123456790122,25.80246913580246,0)" xlink:href="#bg"/><use transform="matrix(0.06790123456790122,0,0,0.06790123456790122,39.38271604938271,0)" xlink:href="#bq"/><use transform="matrix(0.06790123456790122,0,0,0.06790123456790122,44.746913580246904,0)" xlink:href="#bt"/></g><g id="E"><use transform="matrix(0.06790123456790122,0,0,0.06790123456790122,0,0)" xlink:href="#bn"/><use transform="matrix(0.06790123456790122,0,0,0.06790123456790122,13.580246913580243,0)" xlink:href="#bg"/><use transform="matrix(0.06790123456790122,0,0,0.06790123456790122,27.160493827160487,0)" xlink:href="#bi"/><use transform="matrix(0.06790123456790122,0,0,0.06790123456790122,35.24074074074073,0)" xlink:href="#bg"/><use transform="matrix(0.06790123456790122,0,0,0.06790123456790122,48.82098765432097,0)" xlink:href="#bl"/><use transform="matrix(0.06790123456790122,0,0,0.06790123456790122,69.12345679012344,0)" xlink:href="#bk"/></g><g id="F"><use transform="matrix(0.06790123456790122,0,0,0.06790123456790122,0,0)" xlink:href="#bj"/><use transform="matrix(0.06790123456790122,0,0,0.06790123456790122,13.580246913580243,0)" xlink:href="#bn"/><use transform="matrix(0.06790123456790122,0,0,0.06790123456790122,27.160493827160487,0)" xlink:href="#bo"/><use transform="matrix(0.06790123456790122,0,0,0.06790123456790122,40.74074074074073,0)" xlink:href="#bu"/><use transform="matrix(0.06790123456790122,0,0,0.06790123456790122,52.962962962962955,0)" xlink:href="#bv"/></g><path fill="#333" d="M143 0L79-87 56-68V0H24v-261h32v163l83-92h37l-77 82L181 0h-38" id="bw"/><g id="G"><use transform="matrix(0.06790123456790122,0,0,0.06790123456790122,0,0)" xlink:href="#be"/><use transform="matrix(0.06790123456790122,0,0,0.06790123456790122,13.580246913580243,0)" xlink:href="#bp"/><use transform="matrix(0.06790123456790122,0,0,0.06790123456790122,18.94444444444444,0)" xlink:href="#bo"/><use transform="matrix(0.06790123456790122,0,0,0.06790123456790122,32.52469135802468,0)" xlink:href="#bu"/><use transform="matrix(0.06790123456790122,0,0,0.06790123456790122,44.746913580246904,0)" xlink:href="#bw"/></g><path fill="#333" d="M212-179c-10-28-35-45-73-45-59 0-87 40-87 99 0 60 29 101 89 101 43 0 62-24 78-52l27 14C228-24 195 4 139 4 59 4 22-46 18-125c-6-104 99-153 187-111 19 9 31 26 39 46" id="bx"/><path fill="#333" d="M160-131c35 5 61 23 61 61C221 17 115-2 30 0v-248c76 3 177-17 177 60 0 33-19 50-47 57zm-97-11c50-1 110 9 110-42 0-47-63-36-110-37v79zm0 115c55-2 124 14 124-45 0-56-70-42-124-44v89" id="by"/><path fill="#333" d="M233-177c-1 41-23 64-60 70L243 0h-38l-65-103H63V0H30v-248c88 3 205-21 203 71zM63-129c60-2 137 13 137-47 0-61-80-42-137-45v92" id="bz"/><g id="H"><use transform="matrix(0.06790123456790122,0,0,0.06790123456790122,0,0)" xlink:href="#bx"/><use transform="matrix(0.06790123456790122,0,0,0.06790123456790122,17.586419753086414,0)" xlink:href="#by"/><use transform="matrix(0.06790123456790122,0,0,0.06790123456790122,33.88271604938271,0)" xlink:href="#bd"/><use transform="matrix(0.06790123456790122,0,0,0.06790123456790122,52.89506172839505,0)" xlink:href="#bz"/></g><g id="I"><use transform="matrix(0.06790123456790122,0,0,0.06790123456790122,0,0)" xlink:href="#bv"/><use transform="matrix(0.06790123456790122,0,0,0.06790123456790122,13.580246913580243,0)" xlink:href="#bg"/><use transform="matrix(0.06790123456790122,0,0,0.06790123456790122,27.160493827160487,0)" xlink:href="#bk"/><use transform="matrix(0.06790123456790122,0,0,0.06790123456790122,39.38271604938271,0)" xlink:href="#bv"/></g><path fill="#333" d="M33 0v-38h34V0H33" id="bA"/><g id="J"><use transform="matrix(0.06790123456790122,0,0,0.06790123456790122,0,0)" xlink:href="#bA"/><use transform="matrix(0.06790123456790122,0,0,0.06790123456790122,6.790123456790122,0)" xlink:href="#bA"/><use transform="matrix(0.06790123456790122,0,0,0.06790123456790122,13.580246913580243,0)" xlink:href="#bA"/></g><g id="K"><use transform="matrix(0.06790123456790122,0,0,0.06790123456790122,0,0)" xlink:href="#bg"/><use transform="matrix(0.06790123456790122,0,0,0.06790123456790122,13.580246913580243,0)" xlink:href="#bt"/><use transform="matrix(0.06790123456790122,0,0,0.06790123456790122,27.160493827160487,0)" xlink:href="#bh"/></g><g id="L"><use transform="matrix(0.06790123456790122,0,0,0.06790123456790122,0,0)" xlink:href="#bl"/><use transform="matrix(0.06790123456790122,0,0,0.06790123456790122,20.302469135802465,0)" xlink:href="#bo"/><use transform="matrix(0.06790123456790122,0,0,0.06790123456790122,33.88271604938271,0)" xlink:href="#bi"/><use transform="matrix(0.06790123456790122,0,0,0.06790123456790122,41.962962962962955,0)" xlink:href="#bj"/></g><path fill="#0c7cba" d="M160-131c35 5 61 23 61 61C221 17 115-2 30 0v-248c76 3 177-17 177 60 0 33-19 50-47 57zm-97-11c50-1 110 9 110-42 0-47-63-36-110-37v79zm0 115c55-2 124 14 124-45 0-56-70-42-124-44v89" id="bB"/><g id="M"><use transform="matrix(0.07407407407407404,0,0,0.07407407407407404,0,0)" xlink:href="#bB"/><use transform="matrix(0.07407407407407404,0,0,0.07407407407407404,17.77777777777777,0)" xlink:href="#aH"/><use transform="matrix(0.07407407407407404,0,0,0.07407407407407404,23.62962962962962,0)" xlink:href="#al"/><use transform="matrix(0.07407407407407404,0,0,0.07407407407407404,38.44444444444443,0)" xlink:href="#aq"/><use transform="matrix(0.07407407407407404,0,0,0.07407407407407404,51.77777777777776,0)" xlink:href="#aI"/></g><path fill="#0c7cba" d="M140-251c81 0 123 46 123 126C263-46 219 4 140 4 59 4 17-45 17-125s42-126 123-126zm0 227c63 0 89-41 89-101s-29-99-89-99c-61 0-89 39-89 99S79-25 140-24" id="bC"/><path fill="#0c7cba" d="M233-177c-1 41-23 64-60 70L243 0h-38l-65-103H63V0H30v-248c88 3 205-21 203 71zM63-129c60-2 137 13 137-47 0-61-80-42-137-45v92" id="bD"/><g id="N"><use transform="matrix(0.07407407407407404,0,0,0.07407407407407404,0,0)" xlink:href="#ag"/><use transform="matrix(0.07407407407407404,0,0,0.07407407407407404,19.185185185185176,0)" xlink:href="#bB"/><use transform="matrix(0.07407407407407404,0,0,0.07407407407407404,36.96296296296295,0)" xlink:href="#bC"/><use transform="matrix(0.07407407407407404,0,0,0.07407407407407404,57.70370370370368,0)" xlink:href="#bD"/></g><path fill="#0c7cba" d="M63-220v92h138v28H63V0H30v-248h175v28H63" id="bE"/><path fill="#0c7cba" d="M135-143c-3-34-86-38-87 0 15 53 115 12 119 90S17 21 10-45l28-5c4 36 97 45 98 0-10-56-113-15-118-90-4-57 82-63 122-42 12 7 21 19 24 35" id="bF"/><g id="O"><use transform="matrix(0.07407407407407404,0,0,0.07407407407407404,0,0)" xlink:href="#bE"/><use transform="matrix(0.07407407407407404,0,0,0.07407407407407404,16.222222222222214,0)" xlink:href="#au"/><use transform="matrix(0.07407407407407404,0,0,0.07407407407407404,22.074074074074062,0)" xlink:href="#aH"/><use transform="matrix(0.07407407407407404,0,0,0.07407407407407404,27.92592592592591,0)" xlink:href="#an"/><use transform="matrix(0.07407407407407404,0,0,0.07407407407407404,42.74074074074072,0)" xlink:href="#bF"/></g><path fill="#c92d39" d="M212-179c-10-28-35-45-73-45-59 0-87 40-87 99 0 60 29 101 89 101 43 0 62-24 78-52l27 14C228-24 195 4 139 4 59 4 22-46 18-125c-6-104 99-153 187-111 19 9 31 26 39 46" id="bG"/><path fill="#c92d39" d="M141-36C126-15 110 5 73 4 37 3 15-17 15-53c-1-64 63-63 125-63 3-35-9-54-41-54-24 1-41 7-42 31l-33-3c5-37 33-52 76-52 45 0 72 20 72 64v82c-1 20 7 32 28 27v20c-31 9-61-2-59-35zM48-53c0 20 12 33 32 33 41-3 63-29 60-74-43 2-92-5-92 41" id="bH"/><g id="P"><use transform="matrix(0.08641975308641973,0,0,0.08641975308641973,0,0)" xlink:href="#bG"/><use transform="matrix(0.08641975308641973,0,0,0.08641975308641973,22.38271604938271,0)" xlink:href="#bH"/><use transform="matrix(0.08641975308641973,0,0,0.08641975308641973,39.66666666666666,0)" xlink:href="#aB"/><use transform="matrix(0.08641975308641973,0,0,0.08641975308641973,55.22222222222221,0)" xlink:href="#aB"/><use transform="matrix(0.08641975308641973,0,0,0.08641975308641973,70.77777777777776,0)" xlink:href="#bH"/><use transform="matrix(0.08641975308641973,0,0,0.08641975308641973,88.0617283950617,0)" xlink:href="#aS"/><use transform="matrix(0.08641975308641973,0,0,0.08641975308641973,105.34567901234566,0)" xlink:href="#az"/><use transform="matrix(0.08641975308641973,0,0,0.08641975308641973,122.6296296296296,0)" xlink:href="#aO"/><use transform="matrix(0.08641975308641973,0,0,0.08641975308641973,132.91358024691357,0)" xlink:href="#bH"/></g></defs></g></svg>