<svg xmlns="http://www.w3.org/2000/svg" xmlns:xlink="http://www.w3.org/1999/xlink" xmlns:lucid="lucid" width="1689.41" height="920"><g transform="translate(-9.211426977707788 0)" lucid:page-tab-id="i3E-M2ZlQY83"><path d="M309.2 38a18 18 0 0 1 18-18h971.43a18 18 0 0 1 18 18v844a18 18 0 0 1-18 18H327.2a18 18 0 0 1-18-18z" fill="#e5e5e5"/><path d="M317.35 23l1.7-1.04 2.6-1.08 2.75-.66h9.13m12.18 0h18.27m12.18 0h18.27m12.18-.02h18.26m12.18 0h18.27m12.2 0l18.25-.02m12.18 0h18.27m12.18 0h18.26m12.18 0l18.27-.02m12.16 0h18.27m12.18 0H638m12.17 0l18.27-.02m12.18 0h18.27m12.17 0h18.27m12.2 0l18.26-.02m12.17 0h18.27m12.18 0h18.26m12.18 0l18.27-.02m12.17 0h18.26m12.18 0H912m12.18 0l18.26-.02m12.18 0h18.27m12.18 0h18.26m12.2-.02h18.26m12.18 0h18.26m12.18 0h18.27m12.18-.02h18.26m12.17 0h18.27m12.17 0H1186m12.18-.02h18.27m12.17 0h18.27m12.18 0l18.27-.02m12.17 0h9.13l2.8.22 2.76.66 1.82.76m7.6 6.5l1.05 1.7 1.08 2.6.66 2.74v9.08m0 12.1l.02 18.14m0 12.1v18.14m0 12.1V135m0 12.08l.02 18.15m0 12.1v18.14m0 12.1l.02 18.15m0 12.1v18.14m0 12.1v18.14m0 12.1l.02 18.15m0 12.1v18.14m0 12.1v18.13m.02 12.1v18.15m0 12.1v18.14m0 12.1l.02 18.15m0 12.1v18.14m0 12.1v18.15m.02 12.1v18.15m0 12.1v18.14m0 12.1l.02 18.14m0 12.1v18.15m0 12.1v18.14m.02 12.1v18.14m0 12.1v18.16m0 12.1l.02 18.14m0 12.1v18.14m0 12.1v18.15m.02 12.08v18.15m0 12.1V882l-.2 2.82-.67 2.74-.76 1.83m-6.52 7.6l-1.68 1.04-2.6 1.08-2.76.66h-9.13m-12.17 0h-18.27m-12.17 0h-18.28m-12.18.02h-18.26m-12.18 0h-18.27m-12.18 0l-18.26.02m-12.2 0h-18.26m-12.18 0h-18.26m-12.18 0l-18.27.02m-12.18 0h-18.26m-12.17 0h-18.27m-12.18 0l-18.26.02m-12.18 0h-18.27m-12.18 0h-18.27m-12.18 0l-18.27.02m-12.17 0h-18.26m-12.18 0H805.2m-12.18 0l-18.27.02m-12.18 0H744.3m-12.17 0h-18.27m-12.18 0l-18.27.02m-12.16 0h-18.27m-12.18 0h-18.27m-12.18.02h-18.27m-12.18 0h-18.26m-12.18 0H531.2m-12.2.02h-18.25m-12.18 0H470.3m-12.18 0h-18.26m-12.18.02H409.4m-12.17 0h-18.26m-12.18 0l-18.28.02m-12.18 0h-9.13l-2.8-.22-2.75-.66-1.83-.76m-7.6-6.5l-1.05-1.7-1.08-2.6-.67-2.74v-9.08m0-12.1V845.5m0-12.1l-.02-18.14m0-12.1V785m0-12.08v-18.15m0-12.1v-18.14m0-12.1l-.02-18.15m0-12.1v-18.14m0-12.1V633.8m-.02-12.1v-18.15m0-12.1V573.3m0-12.1l-.02-18.13m0-12.1v-18.15m0-12.1v-18.14m-.02-12.1v-18.15m0-12.1V422.1m0-12.1l-.02-18.15m0-12.1V361.6m0-12.1v-18.14m0-12.1l-.02-18.14m0-12.1v-18.15m0-12.1l-.02-18.14m0-12.1V210.4m0-12.1v-18.16m0-12.1l-.02-18.14m0-12.1v-18.14m0-12.1l-.02-18.15m0-12.08V59.17m0-12.1V38l.2-2.82.67-2.74.75-1.83" stroke="#ccc" stroke-width="6" fill="none"/><use xlink:href="#a" transform="matrix(1,0,0,1,324.2114269777078,35) translate(297.4074074074077 49.777777777777715)"/><use xlink:href="#b" transform="matrix(1,0,0,1,324.2114269777078,35) translate(518.6419753086419 49.777777777777715)"/><path d="M1678.62 523.67c0 6.62-40.3 12-90 12s-90-5.38-90-12v-96c0-6.63 40.3-12 90-12s90 5.37 90 12z" stroke="#ef8d22" stroke-width="6" fill="#ffeca9"/><path d="M1678.62 427.67c0 6.62-40.3 12-90 12s-90-5.38-90-12" stroke="#ef8d22" stroke-width="6" fill="none"/><use xlink:href="#c" transform="matrix(1,0,0,1,1503.6220006559963,444.6666666666661) translate(45.33333333333334 49.076388888888886)"/><path d="M1192.96 255.67h6.15m8.2 0h12.32m8.2 0h12.3m8.2 0h12.32m8.2 0h12.3m8.2 0h12.3m8.22 0h12.3m8.2 0h12.3m8.2 0h12.32m8.2 0h12.3m8.2 0h12.32m8.2 0h12.3m8.2 0h12.3m8.22 0h12.3m8.2 0h12.3m8.2 0h12.32m8.2 0h12.3m8.2 0h12.32m8.2 0h12.3m8.2 0h6.16l.94.07.92.22.87.36.8.5.7.6.63.72.5.8.35.87.22.93v6.46m0 8.6v12.92m.02 8.6v12.93m0 8.62l.02 12.92m0 8.6v12.92m0 8.62v12.92m.02 8.6v6.47" stroke="#fc9432" stroke-width="4" fill="none"/><path d="M1193 257.67h-2.13l.1-1.97-.06-2.03h2.1z" stroke="#fc9432" stroke-width=".05" fill="#fc9432"/><path d="M1588.62 406.2l-4.63-14.27h9.26z" stroke="#fc9432" stroke-width="4" fill="#fc9432"/><path d="M1002.07 387.07a6 6 0 0 1 6-6h228a6 6 0 0 1 6 6v78a6 6 0 0 1-6 6h-228a6 6 0 0 1-6-6z" stroke="#000" stroke-opacity="0" stroke-width="3" fill="#fff" fill-opacity="0"/><path d="M1155.8 200c18.03 0 32.66 24.92 32.66 55.67 0 30.74-14.63 55.66-32.67 55.66H894.45c-18.04 0-32.66-24.92-32.66-55.66 0-30.75 14.62-55.67 32.66-55.67z" stroke="#19967d" stroke-width="5" fill="#c7e8ac"/><path d="M1155.8 311.33c-18.05 0-32.68-24.92-32.68-55.66 0-30.75 14.63-55.67 32.67-55.67" stroke="#19967d" stroke-width="5" fill="none"/><use xlink:href="#d" transform="matrix(1,0,0,1,866.7956966406309,205) translate(28.65432098765436 61.05555555555554)"/><use xlink:href="#e" transform="matrix(1,0,0,1,866.7956966406309,205) translate(173.96296296296296 61.05555555555554)"/><path d="M29.2 199.18a6 6 0 0 1 6-6h170.87a6 6 0 0 1 6 6v108a6 6 0 0 1-6 6H35.2a6 6 0 0 1-6-6z" stroke="#0c7cba" stroke-width="5" fill="#c1e4f7"/><path d="M47.5 193.18v120m146.28-120v120" stroke="#0c7cba" stroke-width="5" fill="none"/><use xlink:href="#f" transform="matrix(1,0,0,1,57.06856983485064,198.17923463041006) translate(4.456790123456798 30.555555555555564)"/><use xlink:href="#g" transform="matrix(1,0,0,1,57.06856983485064,198.17923463041006) translate(26.882716049382722 67.88888888888889)"/><use xlink:href="#h" transform="matrix(1,0,0,1,57.06856983485064,198.17923463041006) translate(17.4166666666667 96.33333333333333)"/><use xlink:href="#i" transform="matrix(1,0,0,1,57.06856983485064,198.17923463041006) translate(56.25000000000001 96.33333333333333)"/><use xlink:href="#j" transform="matrix(1,0,0,1,57.06856983485064,198.17923463041006) translate(67.36111111111111 96.33333333333333)"/><path d="M1156.55 420c18.04 0 32.66 24.92 32.66 55.67 0 30.74-14.6 55.66-32.65 55.66H895.22c-18.04 0-32.67-24.92-32.67-55.66 0-30.75 14.63-55.67 32.67-55.67z" stroke="#19967d" stroke-width="5" fill="#c7e8ac"/><path d="M1156.55 531.33c-18.05 0-32.67-24.92-32.67-55.66 0-30.75 14.62-55.67 32.67-55.67" stroke="#19967d" stroke-width="5" fill="none"/><use xlink:href="#d" transform="matrix(1,0,0,1,867.5505806989054,424.99999999999994) translate(28.65432098765436 61.05555555555554)"/><use xlink:href="#k" transform="matrix(1,0,0,1,867.5505806989054,424.99999999999994) translate(173.96296296296296 61.05555555555554)"/><path d="M1159.88 660c18.04 0 32.66 24.92 32.66 55.67 0 30.74-14.62 55.66-32.66 55.66H898.55c-18.04 0-32.67-24.92-32.67-55.66 0-30.75 14.63-55.67 32.67-55.67z" stroke="#19967d" stroke-width="5" fill="#c7e8ac"/><path d="M1159.88 771.33c-18.05 0-32.67-24.92-32.67-55.66 0-30.75 14.63-55.67 32.68-55.67" stroke="#19967d" stroke-width="5" fill="none"/><use xlink:href="#d" transform="matrix(1,0,0,1,870.8810038383065,665) translate(28.65432098765436 61.05555555555554)"/><use xlink:href="#l" transform="matrix(1,0,0,1,870.8810038383065,665) translate(173.96296296296296 61.05555555555554)"/><path d="M1193.7 475.67h6.44m8.57 0h12.86m8.57 0h12.85m8.57 0h12.86m8.57 0h12.86m8.57 0h12.85m8.57 0h12.85m8.57 0h12.89m8.6 0h12.93m8.62 0h12.92m8.6 0h12.94m8.6 0h12.93m8.62 0h12.9m8.62 0h6.46" stroke="#fc9432" stroke-width="4" fill="none"/><path d="M1193.76 477.67h-2.14l.1-1.97-.05-2.03h2.1z" stroke="#fc9432" stroke-width=".05" fill="#fc9432"/><path d="M1489.15 475.67l-14.27 4.63v-9.27z" stroke="#fc9432" stroke-width="4" fill="#fc9432"/><path d="M1197.04 715.67h6.1m8.1 0h12.18m8.12 0h12.18m8.12 0H1264m8.13 0h12.18m8.12 0h12.18m8.12 0h12.17m8.1 0h12.2m8.1 0h12.18m8.12 0h12.17m8.12 0h12.17m8.1 0h12.2m8.1 0h12.18m8.12 0h12.18m8.12 0h12.17m8.12 0h12.18m8.1 0h12.2m8.1 0h12.18m8.12 0h12.18m8.1 0h6.1l.94-.08.92-.23.87-.36.8-.48.7-.6.63-.73.5-.8.35-.88.22-.9v-6.4m0-8.53v-12.8m.02-8.53v-12.8m0-8.5v-12.8m.02-8.53v-12.8m0-8.5v-12.8m0-8.53v-12.78m.02-8.52v-6.4" stroke="#fc9432" stroke-width="4" fill="none"/><path d="M1197.1 717.67h-2.14l.08-1.97-.04-2.03h2.1z" stroke="#fc9432" stroke-width=".05" fill="#fc9432"/><path d="M1588.62 545.14l4.64 14.26H1584z" stroke="#fc9432" stroke-width="4" fill="#fc9432"/><path d="M216.53 253.2h6m8 .04l12 .05m8 .02l12 .04m8 .04l12 .04m8 .03l12 .05m8 .03l12 .05m8 .03l12 .04m8 .03l12 .05m8 .03l12 .05m8 .03l12 .04m8 .04l12 .04m8 .03l12 .06m8 .03l12 .04m8 .03l12 .04m8 .04l12 .05m8 .02l12 .05m8 .03l12.02.04m8 .04l12 .04m8 .03l12 .05m8 .03l12 .05m8 .03l12 .05m8 .03l12 .05m8 .03l12 .05m8 .04l12 .04m8 .04l12 .04m8 .03l12 .04m8 .03l12 .05m8 .03l12 .04m8 .02l12 .05m8 .03l12 .05m8 .03l12 .04m8 .04l6 .02" stroke="#0c7cba" stroke-width="4" fill="none"/><path d="M216.6 251.2l-.02 4-2.05-.02v-4z" stroke="#0c7cba" stroke-width=".05" fill="#0c7cba"/><path d="M852.82 255.64l-14.28 4.58.04-9.27z" stroke="#0c7cba" stroke-width="4" fill="#0c7cba"/><use xlink:href="#m" transform="matrix(1,0,0,1,447.489350661691,210.7343894455566) translate(0 26.666666666666657)"/><use xlink:href="#n" transform="matrix(1,0,0,1,447.489350661691,210.7343894455566) translate(72.03703703703701 26.666666666666657)"/><use xlink:href="#o" transform="matrix(1,0,0,1,447.489350661691,210.7343894455566) translate(193.88888888888883 26.666666666666657)"/><use xlink:href="#p" transform="matrix(1,0,0,1,447.489350661691,210.7343894455566) translate(241.94444444444437 26.666666666666657)"/><path d="M29.2 419.18a6 6 0 0 1 6-6h170.87a6 6 0 0 1 6 6v108a6 6 0 0 1-6 6H35.2a6 6 0 0 1-6-6z" stroke="#0c7cba" stroke-width="5" fill="#c1e4f7"/><path d="M47.5 413.18v120m146.28-120v120" stroke="#0c7cba" stroke-width="5" fill="none"/><use xlink:href="#f" transform="matrix(1,0,0,1,57.06856983485064,418.17923463041) translate(4.456790123456798 30.555555555555564)"/><use xlink:href="#g" transform="matrix(1,0,0,1,57.06856983485064,418.17923463041) translate(26.882716049382722 67.88888888888889)"/><use xlink:href="#h" transform="matrix(1,0,0,1,57.06856983485064,418.17923463041) translate(17.4166666666667 96.33333333333333)"/><use xlink:href="#i" transform="matrix(1,0,0,1,57.06856983485064,418.17923463041) translate(56.25000000000001 96.33333333333333)"/><use xlink:href="#j" transform="matrix(1,0,0,1,57.06856983485064,418.17923463041) translate(67.36111111111111 96.33333333333333)"/><path d="M216.53 473.44l6 .02m8.02.02l12.02.03m8 .04l12.02.03m8 .02l12.02.02m8 .03l12.02.03m8 .02l12.03.03m8 .03l12.02.03m8 0l12.02.04m8 .03l12.03.03m8 .02l12.02.03m8 .03l12.03.03m8 .03l12.02.03m8 .03l12.03.02m8 .02l12.02.03m8 .03l12.03.03m8 .02l12.03.03m8 .03l12.02.04m8 .02l12.03.03m8 .02l12.02.03m8 .02l12.03.03m8 .03l12.02.03m8.02.02l12 .03m8.02.04l12 .03m8.02.02l12 .02m8.02.03l12.02.03m8 .02l12.02.03m8 .03l12.03.03m8.02 0l12.02.04m8 .03l12.02.03m8 .02l12.03.04m8 .02l12 .03m8.02.03l6 .02" stroke="#0c7cba" stroke-width="4" fill="none"/><path d="M216.6 471.44l-.02 4h-2.05v-4z" stroke="#0c7cba" stroke-width=".05" fill="#0c7cba"/><path d="M853.6 475.2l-14.28 4.6.02-9.28z" stroke="#0c7cba" stroke-width="4" fill="#0c7cba"/><g><use xlink:href="#m" transform="matrix(1,0,0,1,367.99633090431206,430.45278808185884) translate(0 26.666666666666657)"/><use xlink:href="#n" transform="matrix(1,0,0,1,367.99633090431206,430.45278808185884) translate(72.03703703703701 26.666666666666657)"/><use xlink:href="#q" transform="matrix(1,0,0,1,367.99633090431206,430.45278808185884) translate(193.88888888888883 26.666666666666657)"/><use xlink:href="#r" transform="matrix(1,0,0,1,367.99633090431206,430.45278808185884) translate(316.01851851851836 26.666666666666657)"/></g><path d="M35.8 663.5a6 6 0 0 1 6-6h170.85a6 6 0 0 1 6 6v108a6 6 0 0 1-6 6H41.8a6 6 0 0 1-6-6z" stroke="#0c7cba" stroke-width="5" fill="#c1e4f7"/><path d="M54.08 657.5v120m146.3-120v120" stroke="#0c7cba" stroke-width="5" fill="none"/><g><use xlink:href="#f" transform="matrix(1,0,0,1,63.65447335960831,662.512567963744) translate(4.456790123456798 30.555555555555564)"/><use xlink:href="#g" transform="matrix(1,0,0,1,63.65447335960831,662.512567963744) translate(26.882716049382722 67.88888888888889)"/><use xlink:href="#h" transform="matrix(1,0,0,1,63.65447335960831,662.512567963744) translate(17.4166666666667 96.33333333333333)"/><use xlink:href="#i" transform="matrix(1,0,0,1,63.65447335960831,662.512567963744) translate(56.25000000000001 96.33333333333333)"/><use xlink:href="#j" transform="matrix(1,0,0,1,63.65447335960831,662.512567963744) translate(67.36111111111111 96.33333333333333)"/></g><path d="M223.12 717.52l5.97.02m7.96.03l11.96.05m7.97.03l11.94.05m7.97.03l11.96.04m7.97.04l11.96.05m7.96.03l11.95.05m7.98.03l11.95.05m7.97.04l11.96.04m7.97.03l11.95.06m7.97.03l11.95.04m7.97.03l11.96.04m7.97.05l11.95.04m7.97.02l11.95.05m7.97.03l11.96.05m7.97.03l11.95.04m7.97.03l11.94.05m7.97.03l11.97.05m7.97.03l11.95.06m7.96.03l11.95.03m7.98.03l11.96.05m7.96.04l11.96.05m7.97.02l11.95.04m7.97.03l11.96.04m7.97.03l11.96.05m7.97.03l11.95.05m7.97.03l11.95.04m7.97.03l11.96.05m7.97.03l11.95.05m7.97.03l11.94.04m7.97.03l11.97.05m7.97.03l11.95.06m7.96.03h5.98" stroke="#0c7cba" stroke-width="4" fill="none"/><path d="M223.18 715.52l-.02 4h-2.04v-4z" stroke="#0c7cba" stroke-width=".05" fill="#0c7cba"/><path d="M857 719.97l-14.28 4.58.04-9.27z" stroke="#0c7cba" stroke-width="4" fill="#0c7cba"/><g><use xlink:href="#m" transform="matrix(1,0,0,1,348.611158744701,674.8730112185896) translate(0 26.666666666666657)"/><use xlink:href="#n" transform="matrix(1,0,0,1,348.611158744701,674.8730112185896) translate(72.03703703703701 26.666666666666657)"/><use xlink:href="#s" transform="matrix(1,0,0,1,348.611158744701,674.8730112185896) translate(193.88888888888883 26.666666666666657)"/><use xlink:href="#t" transform="matrix(1,0,0,1,348.611158744701,674.8730112185896) translate(334.53703703703695 26.666666666666657)"/></g><defs><path fill="#999" d="M169-182c-1-43-94-46-97-3 18 66 151 10 154 114 3 95-165 93-204 36-6-8-10-19-12-30l50-8c3 46 112 56 116 5-17-69-150-10-154-114-4-87 153-88 188-35 5 8 8 18 10 28" id="u"/><path fill="#999" d="M231 0h-52l-39-155L100 0H48L-1-190h46L77-45c9-52 24-97 36-145h53l37 145 32-145h46" id="v"/><path fill="#999" d="M133-34C117-15 103 5 69 4 32 3 11-16 11-54c-1-60 55-63 116-61 1-26-3-47-28-47-18 1-26 9-28 27l-52-2c7-38 36-58 82-57s74 22 75 68l1 82c-1 14 12 18 25 15v27c-30 8-71 5-69-32zm-48 3c29 0 43-24 42-57-32 0-66-3-65 30 0 17 8 27 23 27" id="w"/><path fill="#999" d="M135-150c-39-12-60 13-60 57V0H25l-1-190h47c2 13-1 29 3 40 6-28 27-53 61-41v41" id="x"/><path fill="#999" d="M220-157c-53 9-28 100-34 157h-49v-107c1-27-5-49-29-50C55-147 81-57 75 0H25l-1-190h47c2 12-1 28 3 38 10-53 101-56 108 0 13-22 24-43 59-42 82 1 51 116 57 194h-49v-107c-1-25-5-48-29-50" id="y"/><g id="a"><use transform="matrix(0.17283950617283927,0,0,0.17283950617283927,0,0)" xlink:href="#u"/><use transform="matrix(0.17283950617283927,0,0,0.17283950617283927,41.481481481481424,0)" xlink:href="#v"/><use transform="matrix(0.17283950617283927,0,0,0.17283950617283927,89.87654320987642,0)" xlink:href="#w"/><use transform="matrix(0.17283950617283927,0,0,0.17283950617283927,124.44444444444427,0)" xlink:href="#x"/><use transform="matrix(0.17283950617283927,0,0,0.17283950617283927,148.64197530864178,0)" xlink:href="#y"/></g><path fill="#999" d="M230 0l2-204L168 0h-37L68-204 70 0H24v-248h70l56 185 57-185h69V0h-46" id="z"/><path fill="#999" d="M110-194c64 0 96 36 96 99 0 64-35 99-97 99-61 0-95-36-95-99 0-62 34-99 96-99zm-1 164c35 0 45-28 45-65 0-40-10-65-43-65-34 0-45 26-45 65 0 36 10 65 43 65" id="A"/><path fill="#999" d="M88-194c31-1 46 15 58 34l-1-101h50l1 261h-48c-2-10 0-23-3-31C134-8 116 4 84 4 32 4 16-41 15-95c0-56 19-97 73-99zm17 164c33 0 40-30 41-66 1-37-9-64-41-64s-38 30-39 65c0 43 13 65 39 65" id="B"/><path fill="#999" d="M185-48c-13 30-37 53-82 52C43 2 14-33 14-96s30-98 90-98c62 0 83 45 84 108H66c0 31 8 55 39 56 18 0 30-7 34-22zm-45-69c5-46-57-63-70-21-2 6-4 13-4 21h74" id="C"/><g id="b"><use transform="matrix(0.17283950617283927,0,0,0.17283950617283927,0,0)" xlink:href="#z"/><use transform="matrix(0.17283950617283927,0,0,0.17283950617283927,51.67901234567894,0)" xlink:href="#A"/><use transform="matrix(0.17283950617283927,0,0,0.17283950617283927,89.53086419753075,0)" xlink:href="#B"/><use transform="matrix(0.17283950617283927,0,0,0.17283950617283927,127.38271604938255,0)" xlink:href="#C"/></g><path fill="#c92d39" d="M233-177c-1 41-23 64-60 70L243 0h-38l-65-103H63V0H30v-248c88 3 205-21 203 71zM63-129c60-2 137 13 137-47 0-61-80-42-137-45v92" id="D"/><path fill="#c92d39" d="M100-194c63 0 86 42 84 106H49c0 40 14 67 53 68 26 1 43-12 49-29l28 8c-11 28-37 45-77 45C44 4 14-33 15-96c1-61 26-98 85-98zm52 81c6-60-76-77-97-28-3 7-6 17-6 28h103" id="E"/><path fill="#c92d39" d="M85-194c31 0 48 13 60 33l-1-100h32l1 261h-30c-2-10 0-23-3-31C134-8 116 4 85 4 32 4 16-35 15-94c0-66 23-100 70-100zm9 24c-40 0-46 34-46 75 0 40 6 74 45 74 42 0 51-32 51-76 0-42-9-74-50-73" id="F"/><path fill="#c92d39" d="M24-231v-30h32v30H24zM24 0v-190h32V0H24" id="G"/><path fill="#c92d39" d="M135-143c-3-34-86-38-87 0 15 53 115 12 119 90S17 21 10-45l28-5c4 36 97 45 98 0-10-56-113-15-118-90-4-57 82-63 122-42 12 7 21 19 24 35" id="H"/><g id="c"><use transform="matrix(0.08641975308641973,0,0,0.08641975308641973,0,0)" xlink:href="#D"/><use transform="matrix(0.08641975308641973,0,0,0.08641975308641973,22.38271604938271,0)" xlink:href="#E"/><use transform="matrix(0.08641975308641973,0,0,0.08641975308641973,39.66666666666666,0)" xlink:href="#F"/><use transform="matrix(0.08641975308641973,0,0,0.08641975308641973,56.950617283950606,0)" xlink:href="#G"/><use transform="matrix(0.08641975308641973,0,0,0.08641975308641973,63.777777777777764,0)" xlink:href="#H"/></g><path fill="#19967d" d="M185-189c-5-48-123-54-124 2 14 75 158 14 163 119 3 78-121 87-175 55-17-10-28-26-33-46l33-7c5 56 141 63 141-1 0-78-155-14-162-118-5-82 145-84 179-34 5 7 8 16 11 25" id="I"/><path fill="#19967d" d="M96-169c-40 0-48 33-48 73s9 75 48 75c24 0 41-14 43-38l32 2c-6 37-31 61-74 61-59 0-76-41-82-99-10-93 101-131 147-64 4 7 5 14 7 22l-32 3c-4-21-16-35-41-35" id="J"/><path fill="#19967d" d="M114-163C36-179 61-72 57 0H25l-1-190h30c1 12-1 29 2 39 6-27 23-49 58-41v29" id="K"/><path fill="#19967d" d="M100-194c62-1 85 37 85 99 1 63-27 99-86 99S16-35 15-95c0-66 28-99 85-99zM99-20c44 1 53-31 53-75 0-43-8-75-51-75s-53 32-53 75 10 74 51 75" id="L"/><path fill="#19967d" d="M24 0v-261h32V0H24" id="M"/><path fill="#19967d" d="M135-143c-3-34-86-38-87 0 15 53 115 12 119 90S17 21 10-45l28-5c4 36 97 45 98 0-10-56-113-15-118-90-4-57 82-63 122-42 12 7 21 19 24 35" id="N"/><g id="d"><use transform="matrix(0.12345679012345674,0,0,0.12345679012345674,0,0)" xlink:href="#I"/><use transform="matrix(0.12345679012345674,0,0,0.12345679012345674,29.62962962962962,0)" xlink:href="#J"/><use transform="matrix(0.12345679012345674,0,0,0.12345679012345674,51.85185185185183,0)" xlink:href="#K"/><use transform="matrix(0.12345679012345674,0,0,0.12345679012345674,66.54320987654319,0)" xlink:href="#L"/><use transform="matrix(0.12345679012345674,0,0,0.12345679012345674,91.23456790123453,0)" xlink:href="#M"/><use transform="matrix(0.12345679012345674,0,0,0.12345679012345674,100.98765432098762,0)" xlink:href="#M"/><use transform="matrix(0.12345679012345674,0,0,0.12345679012345674,110.7407407407407,0)" xlink:href="#N"/></g><path fill="#19967d" d="M158-156l-14 65h45v19h-49L124 0h-19l15-72H56L41 0H22l15-72H2v-19h39l14-65H11v-19h48l15-71h20l-16 71h64l16-71h19l-16 71h37v19h-40zm-83 0L61-91h63l14-65H75" id="O"/><path fill="#19967d" d="M27 0v-27h64v-190l-56 39v-29l58-41h29v221h61V0H27" id="P"/><g id="e"><use transform="matrix(0.12345679012345674,0,0,0.12345679012345674,0,0)" xlink:href="#O"/><use transform="matrix(0.12345679012345674,0,0,0.12345679012345674,24.691358024691347,0)" xlink:href="#P"/></g><path fill="#0c7cba" d="M212-179c-10-28-35-45-73-45-59 0-87 40-87 99 0 60 29 101 89 101 43 0 62-24 78-52l27 14C228-24 195 4 139 4 59 4 22-46 18-125c-6-104 99-153 187-111 19 9 31 26 39 46" id="Q"/><path fill="#0c7cba" d="M141-36C126-15 110 5 73 4 37 3 15-17 15-53c-1-64 63-63 125-63 3-35-9-54-41-54-24 1-41 7-42 31l-33-3c5-37 33-52 76-52 45 0 72 20 72 64v82c-1 20 7 32 28 27v20c-31 9-61-2-59-35zM48-53c0 20 12 33 32 33 41-3 63-29 60-74-43 2-92-5-92 41" id="R"/><path fill="#0c7cba" d="M114-163C36-179 61-72 57 0H25l-1-190h30c1 12-1 29 2 39 6-27 23-49 58-41v29" id="S"/><path fill="#0c7cba" d="M85-194c31 0 48 13 60 33l-1-100h32l1 261h-30c-2-10 0-23-3-31C134-8 116 4 85 4 32 4 16-35 15-94c0-66 23-100 70-100zm9 24c-40 0-46 34-46 75 0 40 6 74 45 74 42 0 51-32 51-76 0-42-9-74-50-73" id="T"/><path fill="#0c7cba" d="M117-194c89-4 53 116 60 194h-32v-121c0-31-8-49-39-48C34-167 62-67 57 0H25l-1-190h30c1 10-1 24 2 32 11-22 29-35 61-36" id="U"/><path fill="#0c7cba" d="M100-194c62-1 85 37 85 99 1 63-27 99-86 99S16-35 15-95c0-66 28-99 85-99zM99-20c44 1 53-31 53-75 0-43-8-75-51-75s-53 32-53 75 10 74 51 75" id="V"/><g id="f"><use transform="matrix(0.08641975308641973,0,0,0.08641975308641973,0,0)" xlink:href="#Q"/><use transform="matrix(0.08641975308641973,0,0,0.08641975308641973,22.38271604938271,0)" xlink:href="#R"/><use transform="matrix(0.08641975308641973,0,0,0.08641975308641973,39.66666666666666,0)" xlink:href="#S"/><use transform="matrix(0.08641975308641973,0,0,0.08641975308641973,49.950617283950606,0)" xlink:href="#T"/><use transform="matrix(0.08641975308641973,0,0,0.08641975308641973,67.23456790123456,0)" xlink:href="#R"/><use transform="matrix(0.08641975308641973,0,0,0.08641975308641973,84.5185185185185,0)" xlink:href="#U"/><use transform="matrix(0.08641975308641973,0,0,0.08641975308641973,101.80246913580245,0)" xlink:href="#V"/></g><path fill="#0c7cba" d="M190 0L58-211 59 0H30v-248h39L202-35l-2-213h31V0h-41" id="W"/><path fill="#0c7cba" d="M100-194c63 0 86 42 84 106H49c0 40 14 67 53 68 26 1 43-12 49-29l28 8c-11 28-37 45-77 45C44 4 14-33 15-96c1-61 26-98 85-98zm52 81c6-60-76-77-97-28-3 7-6 17-6 28h103" id="X"/><g id="g"><use transform="matrix(0.08641975308641973,0,0,0.08641975308641973,0,0)" xlink:href="#W"/><use transform="matrix(0.08641975308641973,0,0,0.08641975308641973,22.38271604938271,0)" xlink:href="#V"/><use transform="matrix(0.08641975308641973,0,0,0.08641975308641973,39.66666666666666,0)" xlink:href="#T"/><use transform="matrix(0.08641975308641973,0,0,0.08641975308641973,56.950617283950606,0)" xlink:href="#X"/></g><path fill="#0c7cba" d="M87 75C49 33 22-17 22-94c0-76 28-126 65-167h31c-38 41-64 92-64 168S80 34 118 75H87" id="Y"/><path fill="#0c7cba" d="M59-47c-2 24 18 29 38 22v24C64 9 27 4 27-40v-127H5v-23h24l9-43h21v43h35v23H59v120" id="Z"/><path fill="#0c7cba" d="M96-169c-40 0-48 33-48 73s9 75 48 75c24 0 41-14 43-38l32 2c-6 37-31 61-74 61-59 0-76-41-82-99-10-93 101-131 147-64 4 7 5 14 7 22l-32 3c-4-21-16-35-41-35" id="aa"/><path fill="#0c7cba" d="M115-194c55 1 70 41 70 98S169 2 115 4C84 4 66-9 55-30l1 105H24l-1-265h31l2 30c10-21 28-34 59-34zm-8 174c40 0 45-34 45-75s-6-73-45-74c-42 0-51 32-51 76 0 43 10 73 51 73" id="ab"/><g id="h"><use transform="matrix(0.05555555555555552,0,0,0.05555555555555552,0,0)" xlink:href="#Y"/><use transform="matrix(0.05555555555555552,0,0,0.05555555555555552,6.611111111111106,0)" xlink:href="#Z"/><use transform="matrix(0.05555555555555552,0,0,0.05555555555555552,12.166666666666657,0)" xlink:href="#aa"/><use transform="matrix(0.05555555555555552,0,0,0.05555555555555552,22.16666666666665,0)" xlink:href="#ab"/></g><path fill="#0c7cba" d="M0 4l72-265h28L28 4H0" id="ac"/><use transform="matrix(0.05555555555555552,0,0,0.05555555555555552,0,0)" xlink:href="#ac" id="i"/><path fill="#0c7cba" d="M84 4C-5 8 30-112 23-190h32v120c0 31 7 50 39 49 72-2 45-101 50-169h31l1 190h-30c-1-10 1-25-2-33-11 22-28 36-60 37" id="ad"/><path fill="#0c7cba" d="M24-231v-30h32v30H24zM24 0v-190h32V0H24" id="ae"/><path fill="#0c7cba" d="M141 0L90-78 38 0H4l68-98-65-92h35l48 74 47-74h35l-64 92 68 98h-35" id="af"/><path fill="#0c7cba" d="M33-261c38 41 65 92 65 168S71 34 33 75H2C39 34 66-17 66-93S39-220 2-261h31" id="ag"/><g id="j"><use transform="matrix(0.05555555555555552,0,0,0.05555555555555552,0,0)" xlink:href="#ad"/><use transform="matrix(0.05555555555555552,0,0,0.05555555555555552,11.111111111111104,0)" xlink:href="#U"/><use transform="matrix(0.05555555555555552,0,0,0.05555555555555552,22.222222222222207,0)" xlink:href="#ae"/><use transform="matrix(0.05555555555555552,0,0,0.05555555555555552,26.611111111111093,0)" xlink:href="#af"/><use transform="matrix(0.05555555555555552,0,0,0.05555555555555552,36.611111111111086,0)" xlink:href="#ag"/></g><path fill="#19967d" d="M101-251c82-7 93 87 43 132L82-64C71-53 59-42 53-27h129V0H18c2-99 128-94 128-182 0-28-16-43-45-43s-46 15-49 41l-32-3c6-41 34-60 81-64" id="ah"/><g id="k"><use transform="matrix(0.12345679012345674,0,0,0.12345679012345674,0,0)" xlink:href="#O"/><use transform="matrix(0.12345679012345674,0,0,0.12345679012345674,24.691358024691347,0)" xlink:href="#ah"/></g><path fill="#19967d" d="M126-127c33 6 58 20 58 59 0 88-139 92-164 29-3-8-5-16-6-25l32-3c6 27 21 44 54 44 32 0 52-15 52-46 0-38-36-46-79-43v-28c39 1 72-4 72-42 0-27-17-43-46-43-28 0-47 15-49 41l-32-3c6-42 35-63 81-64 48-1 79 21 79 65 0 36-21 52-52 59" id="ai"/><g id="l"><use transform="matrix(0.12345679012345674,0,0,0.12345679012345674,0,0)" xlink:href="#O"/><use transform="matrix(0.12345679012345674,0,0,0.12345679012345674,24.691358024691347,0)" xlink:href="#ai"/></g><path fill="#0c7cba" d="M169-182c-1-43-94-46-97-3 18 66 151 10 154 114 3 95-165 93-204 36-6-8-10-19-12-30l50-8c3 46 112 56 116 5-17-69-150-10-154-114-4-87 153-88 188-35 5 8 8 18 10 28" id="aj"/><path fill="#0c7cba" d="M25 0v-261h50V0H25" id="ak"/><path fill="#0c7cba" d="M110-194c64 0 96 36 96 99 0 64-35 99-97 99-61 0-95-36-95-99 0-62 34-99 96-99zm-1 164c35 0 45-28 45-65 0-40-10-65-43-65-34 0-45 26-45 65 0 36 10 65 43 65" id="al"/><path fill="#0c7cba" d="M115-3C79 11 28 4 28-45v-112H4v-33h27l15-45h31v45h36v33H77v99c-1 23 16 31 38 25v30" id="am"/><g id="m"><use transform="matrix(0.09259259259259256,0,0,0.09259259259259256,0,0)" xlink:href="#aj"/><use transform="matrix(0.09259259259259256,0,0,0.09259259259259256,22.222222222222214,0)" xlink:href="#ak"/><use transform="matrix(0.09259259259259256,0,0,0.09259259259259256,31.48148148148147,0)" xlink:href="#al"/><use transform="matrix(0.09259259259259256,0,0,0.09259259259259256,51.75925925925924,0)" xlink:href="#am"/></g><path fill="#0c7cba" d="M240-174c0 40-23 61-54 70L253 0h-59l-57-94H76V0H24v-248c93 4 217-23 216 74zM76-134c48-2 112 12 112-38 0-48-66-32-112-35v73" id="an"/><path fill="#0c7cba" d="M133-34C117-15 103 5 69 4 32 3 11-16 11-54c-1-60 55-63 116-61 1-26-3-47-28-47-18 1-26 9-28 27l-52-2c7-38 36-58 82-57s74 22 75 68l1 82c-1 14 12 18 25 15v27c-30 8-71 5-69-32zm-48 3c29 0 43-24 42-57-32 0-66-3-65 30 0 17 8 27 23 27" id="ao"/><path fill="#0c7cba" d="M135-194c87-1 58 113 63 194h-50c-7-57 23-157-34-157-59 0-34 97-39 157H25l-1-190h47c2 12-1 28 3 38 12-26 28-41 61-42" id="ap"/><path fill="#0c7cba" d="M195-6C206 82 75 100 31 46c-4-6-6-13-8-21l49-6c3 16 16 24 34 25 40 0 42-37 40-79-11 22-30 35-61 35-53 0-70-43-70-97 0-56 18-96 73-97 30 0 46 14 59 34l2-30h47zm-90-29c32 0 41-27 41-63 0-35-9-62-40-62-32 0-39 29-40 63 0 36 9 62 39 62" id="aq"/><path fill="#0c7cba" d="M185-48c-13 30-37 53-82 52C43 2 14-33 14-96s30-98 90-98c62 0 83 45 84 108H66c0 31 8 55 39 56 18 0 30-7 34-22zm-45-69c5-46-57-63-70-21-2 6-4 13-4 21h74" id="ar"/><path fill="#0c7cba" d="M35-132v-50h50v50H35zM35 0v-49h50V0H35" id="as"/><g id="n"><use transform="matrix(0.09259259259259256,0,0,0.09259259259259256,0,0)" xlink:href="#an"/><use transform="matrix(0.09259259259259256,0,0,0.09259259259259256,23.981481481481474,0)" xlink:href="#ao"/><use transform="matrix(0.09259259259259256,0,0,0.09259259259259256,42.499999999999986,0)" xlink:href="#ap"/><use transform="matrix(0.09259259259259256,0,0,0.09259259259259256,62.77777777777776,0)" xlink:href="#aq"/><use transform="matrix(0.09259259259259256,0,0,0.09259259259259256,83.05555555555553,0)" xlink:href="#ar"/><use transform="matrix(0.09259259259259256,0,0,0.09259259259259256,101.57407407407403,0)" xlink:href="#as"/></g><path fill="#0c7cba" d="M20 75v-336h95v34H67V41h48v34H20" id="at"/><path fill="#0c7cba" d="M101-251c68 0 84 54 84 127C185-50 166 4 99 4S15-52 14-124c-1-75 17-127 87-127zm-1 216c37-5 36-46 36-89s4-89-36-89c-39 0-36 45-36 89 0 43-3 85 36 89" id="au"/><path fill="#0c7cba" d="M76-54c-1 42 2 86-19 110H24C36 42 46 24 48 0H25v-54h51" id="av"/><g id="o"><use transform="matrix(0.09259259259259256,0,0,0.09259259259259256,0,0)" xlink:href="#at"/><use transform="matrix(0.09259259259259256,0,0,0.09259259259259256,11.018518518518515,0)" xlink:href="#au"/><use transform="matrix(0.09259259259259256,0,0,0.09259259259259256,29.537037037037027,0)" xlink:href="#av"/></g><path fill="#0c7cba" d="M139-81c0-46-55-55-73-27H18l9-140h149v37H72l-4 63c44-38 133-4 122 66C201 21 21 35 11-62l49-4c5 18 15 30 39 30 26 0 40-18 40-45" id="aw"/><path fill="#0c7cba" d="M4 75V41h49v-268H4v-34h96V75H4" id="ax"/><g id="p"><use transform="matrix(0.09259259259259256,0,0,0.09259259259259256,0,0)" xlink:href="#aw"/><use transform="matrix(0.09259259259259256,0,0,0.09259259259259256,18.518518518518512,0)" xlink:href="#au"/><use transform="matrix(0.09259259259259256,0,0,0.09259259259259256,37.037037037037024,0)" xlink:href="#au"/><use transform="matrix(0.09259259259259256,0,0,0.09259259259259256,55.555555555555536,0)" xlink:href="#au"/><use transform="matrix(0.09259259259259256,0,0,0.09259259259259256,74.07407407407405,0)" xlink:href="#au"/><use transform="matrix(0.09259259259259256,0,0,0.09259259259259256,92.59259259259255,0)" xlink:href="#ax"/></g><path fill="#0c7cba" d="M23 0v-37h61v-169l-59 37v-38l62-41h46v211h57V0H23" id="ay"/><g id="q"><use transform="matrix(0.09259259259259256,0,0,0.09259259259259256,0,0)" xlink:href="#at"/><use transform="matrix(0.09259259259259256,0,0,0.09259259259259256,11.018518518518515,0)" xlink:href="#aw"/><use transform="matrix(0.09259259259259256,0,0,0.09259259259259256,29.537037037037027,0)" xlink:href="#au"/><use transform="matrix(0.09259259259259256,0,0,0.09259259259259256,48.055555555555536,0)" xlink:href="#au"/><use transform="matrix(0.09259259259259256,0,0,0.09259259259259256,66.57407407407405,0)" xlink:href="#au"/><use transform="matrix(0.09259259259259256,0,0,0.09259259259259256,85.09259259259255,0)" xlink:href="#ay"/><use transform="matrix(0.09259259259259256,0,0,0.09259259259259256,103.61111111111106,0)" xlink:href="#av"/></g><g id="r"><use transform="matrix(0.09259259259259256,0,0,0.09259259259259256,0,0)" xlink:href="#ay"/><use transform="matrix(0.09259259259259256,0,0,0.09259259259259256,18.518518518518512,0)" xlink:href="#au"/><use transform="matrix(0.09259259259259256,0,0,0.09259259259259256,37.037037037037024,0)" xlink:href="#au"/><use transform="matrix(0.09259259259259256,0,0,0.09259259259259256,55.555555555555536,0)" xlink:href="#au"/><use transform="matrix(0.09259259259259256,0,0,0.09259259259259256,74.07407407407405,0)" xlink:href="#au"/><use transform="matrix(0.09259259259259256,0,0,0.09259259259259256,92.59259259259255,0)" xlink:href="#au"/><use transform="matrix(0.09259259259259256,0,0,0.09259259259259256,111.11111111111106,0)" xlink:href="#ax"/></g><g id="s"><use transform="matrix(0.09259259259259256,0,0,0.09259259259259256,0,0)" xlink:href="#at"/><use transform="matrix(0.09259259259259256,0,0,0.09259259259259256,11.018518518518515,0)" xlink:href="#ay"/><use transform="matrix(0.09259259259259256,0,0,0.09259259259259256,29.537037037037027,0)" xlink:href="#au"/><use transform="matrix(0.09259259259259256,0,0,0.09259259259259256,48.055555555555536,0)" xlink:href="#au"/><use transform="matrix(0.09259259259259256,0,0,0.09259259259259256,66.57407407407405,0)" xlink:href="#au"/><use transform="matrix(0.09259259259259256,0,0,0.09259259259259256,85.09259259259255,0)" xlink:href="#au"/><use transform="matrix(0.09259259259259256,0,0,0.09259259259259256,103.61111111111106,0)" xlink:href="#ay"/><use transform="matrix(0.09259259259259256,0,0,0.09259259259259256,122.12962962962956,0)" xlink:href="#av"/></g><g id="t"><use transform="matrix(0.09259259259259256,0,0,0.09259259259259256,0,0)" xlink:href="#ay"/><use transform="matrix(0.09259259259259256,0,0,0.09259259259259256,18.518518518518512,0)" xlink:href="#aw"/><use transform="matrix(0.09259259259259256,0,0,0.09259259259259256,37.037037037037024,0)" xlink:href="#au"/><use transform="matrix(0.09259259259259256,0,0,0.09259259259259256,55.555555555555536,0)" xlink:href="#au"/><use transform="matrix(0.09259259259259256,0,0,0.09259259259259256,74.07407407407405,0)" xlink:href="#au"/><use transform="matrix(0.09259259259259256,0,0,0.09259259259259256,92.59259259259255,0)" xlink:href="#au"/><use transform="matrix(0.09259259259259256,0,0,0.09259259259259256,111.11111111111106,0)" xlink:href="#ax"/></g></defs></g></svg>